<?xml version="1.0" encoding="UTF-8"?>
<svg width="100px" height="100px" viewBox="0 0 100 100" version="1.1" xmlns="http://www.w3.org/2000/svg" xmlns:xlink="http://www.w3.org/1999/xlink">
    <!-- Generator: Sketch 46.2 (44496) - http://www.bohemiancoding.com/sketch -->
    <title>icon_section3_indoor</title>
    <desc>Created with Sketch.</desc>
    <defs>
        <linearGradient x1="50%" y1="1.60975204%" x2="50%" y2="98.0229592%" id="linearGradient-1">
            <stop stop-color="#FCC897" offset="0%"></stop>
            <stop stop-color="#EEA763" offset="100%"></stop>
        </linearGradient>
    </defs>
    <g id="Page-1" stroke="none" stroke-width="1" fill="none" fill-rule="evenodd">
        <g id="3_板块内容" transform="translate(-240.000000, -1011.000000)">
            <g id="icon_section3_indoor" transform="translate(240.000000, 1011.000000)">
                <rect id="Rectangle-7" fill="url(#linearGradient-1)" x="0" y="0" width="100" height="100" rx="50"></rect>
                <rect id="Rectangle-4" fill="#242424" x="18" y="72" width="63" height="4"></rect>
                <rect id="Rectangle-33" stroke="#242424" stroke-width="4" fill="#FFFFFF" x="29" y="25" width="21" height="49"></rect>
                <rect id="Rectangle-33-Copy" stroke="#242424" stroke-width="4" fill="#FFFFFF" x="50" y="25" width="21" height="49"></rect>
                <rect id="Rectangle-4-Copy" fill="#242424" transform="translate(64.485281, 54.485281) rotate(-45.000000) translate(-64.485281, -54.485281) " x="54.4852814" y="52.4852814" width="20" height="4" rx="2"></rect>
                <rect id="Rectangle-5" fill="#EEA764" x="33" y="34" width="15" height="6"></rect>
                <rect id="Rectangle-5-Copy-2" fill="#EEA764" x="52" y="34" width="15" height="6"></rect>
                <rect id="Rectangle-5-Copy" fill="#FCC896" x="33" y="40" width="15" height="6"></rect>
                <rect id="Rectangle-5-Copy-3" fill="#FCC896" x="52" y="40" width="15" height="6"></rect>
                <rect id="Rectangle-4" fill="#242424" transform="translate(48.667262, 44.667262) rotate(-45.000000) translate(-48.667262, -44.667262) " x="34.1672619" y="42.6672619" width="29" height="4" rx="2"></rect>
            </g>
        </g>
    </g>
</svg>