<?xml version="1.0" encoding="UTF-8"?>
<svg width="100px" height="100px" viewBox="0 0 100 100" version="1.1" xmlns="http://www.w3.org/2000/svg" xmlns:xlink="http://www.w3.org/1999/xlink">
    <!-- Generator: Sketch 46.2 (44496) - http://www.bohemiancoding.com/sketch -->
    <title>icon_hawkeye_icon2</title>
    <desc>Created with Sketch.</desc>
    <defs>
        <linearGradient x1="50%" y1="1.60975204%" x2="50%" y2="98.0229592%" id="linearGradient-1">
            <stop stop-color="#FCC897" offset="0%"></stop>
            <stop stop-color="#EEA763" offset="100%"></stop>
        </linearGradient>
    </defs>
    <g id="Page-1" stroke="none" stroke-width="1" fill="none" fill-rule="evenodd">
        <g id="5_鹰眼评分体系" transform="translate(-800.000000, -774.000000)">
            <g id="icon_hawkeye_icon2" transform="translate(800.000000, 774.000000)">
                <rect id="Rectangle-7-Copy" fill="url(#linearGradient-1)" x="0" y="0" width="100" height="100" rx="50"></rect>
                <g id="Group-10" transform="translate(17.000000, 21.000000)">
                    <g id="Group-8" transform="translate(5.000000, 5.000000)"></g>
                    <g id="Group-9">
                        <path d="" id="Path-20" stroke="#979797"></path>
                        <polygon id="Path-23" stroke="#242424" stroke-width="4" fill="#FFFFFF" stroke-linecap="round" stroke-linejoin="round" points="4.65753425 18.7692308 13.0061376 45.9846154 28.8767123 31.0215813"></polygon>
                        <polygon id="Path-24" stroke="#242424" stroke-width="4" fill="#FFFFFF" stroke-linecap="round" stroke-linejoin="round" points="28.8767123 30.1388988 38.5456819 56.3076923 64.2739726 20.6461538"></polygon>
                        <polygon id="Path-25" stroke="#242424" stroke-width="4" fill="#FFFFFF" stroke-linecap="round" stroke-linejoin="round" points="29.5430527 30.0307692 13.0410959 45.8008648 39.1232877 57.2461538"></polygon>
                        <polygon id="Path-22" stroke="#242424" stroke-width="4" fill="#FFFFFF" stroke-linecap="round" stroke-linejoin="round" points="28.8767123 4.69230769 64.2739726 21.55729 28.8767123 31.9076923"></polygon>
                        <polygon id="Path-21" stroke="#242424" stroke-width="4" fill="#FFFFFF" stroke-linecap="round" stroke-linejoin="round" points="4.65753425 19.5485194 28.8767123 4.69230769 28.8767123 31.9076923"></polygon>
                        <ellipse id="Oval-6" fill="#242424" cx="28.8767123" cy="4.69230769" rx="4.65753425" ry="4.69230769"></ellipse>
                        <ellipse id="Oval-6-Copy" fill="#242424" cx="63.3424658" cy="20.6461538" rx="4.65753425" ry="4.69230769"></ellipse>
                        <ellipse id="Oval-6-Copy-2" fill="#242424" cx="39.1232877" cy="56.3076923" rx="4.65753425" ry="4.69230769"></ellipse>
                        <ellipse id="Oval-6-Copy-4" fill="#242424" cx="28.8767123" cy="30.9692308" rx="4.65753425" ry="4.69230769"></ellipse>
                        <ellipse id="Oval-6-Copy-5" fill="#242424" cx="4.65753425" cy="19.7076923" rx="4.65753425" ry="4.69230769"></ellipse>
                        <ellipse id="Oval-6-Copy-3" fill="#242424" cx="13.0410959" cy="45.9846154" rx="4.65753425" ry="4.69230769"></ellipse>
                    </g>
                    <polygon id="Path-26" fill="#EEA663" points="32 13 32 19 51 19 39.3168643 13"></polygon>
                    <polygon id="Path-26-Copy" fill="#FCC897" transform="translate(43.500000, 22.000000) scale(1, -1) translate(-43.500000, -22.000000) " points="32 19 32.0244018 25 51.1046785 25 55 23.0828128 39.3477787 19"></polygon>
                </g>
            </g>
        </g>
    </g>
</svg>