<?xml version="1.0" encoding="UTF-8"?>
<svg width="100px" height="100px" viewBox="0 0 100 100" version="1.1" xmlns="http://www.w3.org/2000/svg" xmlns:xlink="http://www.w3.org/1999/xlink">
    <!-- Generator: Sketch 46.2 (44496) - http://www.bohemiancoding.com/sketch -->
    <title>icon_aboutus_customer_service</title>
    <desc>Created with Sketch.</desc>
    <defs>
        <linearGradient x1="50%" y1="1.60975204%" x2="50%" y2="98.0229592%" id="linearGradient-1">
            <stop stop-color="#FCC897" offset="0%"></stop>
            <stop stop-color="#EEA763" offset="100%"></stop>
        </linearGradient>
        <rect id="path-2" x="43" y="27" width="8" height="18" rx="2"></rect>
        <rect id="path-3" x="3" y="27" width="8" height="18" rx="2"></rect>
    </defs>
    <g id="Page-1" stroke="none" stroke-width="1" fill="none" fill-rule="evenodd">
        <g id="6_关于" transform="translate(-855.000000, -913.000000)">
            <g id="icon_aboutus_customer_service" transform="translate(855.000000, 913.000000)">
                <rect id="Rectangle-7-Copy" fill="url(#linearGradient-1)" x="0" y="0" width="100" height="100" rx="50"></rect>
                <g id="Group-6" transform="translate(23.000000, 20.000000)">
                    <path d="M50.9227695,25 C49.9240599,12.1210777 39.3635504,2 26.5,2 C13.6364496,2 3.07594012,12.1210777 2.07723051,25 L50.9227695,25 Z" id="Oval" stroke="#242424" stroke-width="4"></path>
                    <g id="Rectangle-2-Copy">
                        <use fill="#FFFFFF" fill-rule="evenodd" xlink:href="#path-2"></use>
                        <rect stroke="#242424" stroke-width="4" x="41" y="25" width="12" height="22" rx="2"></rect>
                    </g>
                    <g id="Rectangle-2">
                        <use fill="#FFFFFF" fill-rule="evenodd" xlink:href="#path-3"></use>
                        <rect stroke="#242424" stroke-width="4" x="1" y="25" width="12" height="22" rx="2"></rect>
                    </g>
                    <rect id="Rectangle-41" fill="#EEA764" x="4" y="29" width="6" height="6"></rect>
                    <rect id="Rectangle-41-Copy" fill="#FCC897" x="4" y="35" width="6" height="6"></rect>
                    <path d="M52,45 L32,54" id="Path-19" stroke="#242424" stroke-width="4"></path>
                    <rect id="Rectangle-4" fill="#242424" transform="translate(30.000000, 54.500000) rotate(-30.000000) translate(-30.000000, -54.500000) " x="25" y="51" width="10" height="7" rx="3.5"></rect>
                </g>
            </g>
        </g>
    </g>
</svg>