<?xml version="1.0" encoding="UTF-8"?>
<svg width="100px" height="100px" viewBox="0 0 100 100" version="1.1" xmlns="http://www.w3.org/2000/svg" xmlns:xlink="http://www.w3.org/1999/xlink">
    <!-- Generator: Sketch 46.2 (44496) - http://www.bohemiancoding.com/sketch -->
    <title>icon_aboutus_cooperate</title>
    <desc>Created with Sketch.</desc>
    <defs>
        <linearGradient x1="50%" y1="4.03977997%" x2="50%" y2="100%" id="linearGradient-1">
            <stop stop-color="#88CCFF" offset="0%"></stop>
            <stop stop-color="#5880F3" offset="100%"></stop>
        </linearGradient>
        <rect id="path-2" x="0" y="28" width="49" height="21" rx="10.5"></rect>
        <rect id="path-3" x="14.5" y="14.5" width="49" height="21" rx="10.5"></rect>
    </defs>
    <g id="Page-1" stroke="none" stroke-width="1" fill="none" fill-rule="evenodd">
        <g id="6_关于" transform="translate(-485.000000, -913.000000)">
            <g id="icon_aboutus_cooperate" transform="translate(485.000000, 913.000000)">
                <rect fill="url(#linearGradient-1)" x="0" y="0" width="100" height="100" rx="50"></rect>
                <g id="Group-7" transform="translate(50.000000, 45.000000) rotate(-315.000000) translate(-50.000000, -45.000000) translate(25.000000, 20.000000)">
                    <g id="Rectangle-42">
                        <use fill="#FFFFFF" fill-rule="evenodd" xlink:href="#path-2"></use>
                        <rect stroke="#242424" stroke-width="4" x="-2" y="26" width="53" height="25" rx="12.5"></rect>
                    </g>
                    <g id="Rectangle-42-Copy" transform="translate(39.000000, 25.000000) rotate(-270.000000) translate(-39.000000, -25.000000) ">
                        <use fill="#FFFFFF" fill-rule="evenodd" xlink:href="#path-3"></use>
                        <rect stroke="#242424" stroke-width="4" x="12.5" y="12.5" width="53" height="25" rx="12.5"></rect>
                    </g>
                </g>
                <path d="M55.6071777,46 L79.1652832,46 C78.9743129,47.2816342 78.536406,48.4095638 77.8515625,49.3837891 C77.166719,50.3580143 76.4793817,51.2300846 75.7895508,52 L49.5742188,52 L55.6071777,46 Z" id="Rectangle-5" fill="#5983F3"></path>
                <polygon id="Rectangle-5-Copy" fill="#88CCFF" points="49.6582031 52 75.7844238 52 69.7963867 58 44 58"></polygon>
            </g>
        </g>
    </g>
</svg>