<?xml version="1.0" encoding="UTF-8"?>
<svg width="100px" height="100px" viewBox="0 0 100 100" version="1.1" xmlns="http://www.w3.org/2000/svg" xmlns:xlink="http://www.w3.org/1999/xlink">
    <!-- Generator: Sketch 46.2 (44496) - http://www.bohemiancoding.com/sketch -->
    <title>icon_section1_score</title>
    <desc>Created with Sketch.</desc>
    <defs>
        <linearGradient x1="50%" y1="4.03977997%" x2="50%" y2="100%" id="linearGradient-1">
            <stop stop-color="#88CCFF" offset="0%"></stop>
            <stop stop-color="#5880F3" offset="100%"></stop>
        </linearGradient>
    </defs>
    <g id="Page-1" stroke="none" stroke-width="1" fill="none" fill-rule="evenodd">
        <g id="1_首页" transform="translate(-220.000000, -1302.000000)">
            <g id="icon_section1_score" transform="translate(220.000000, 1302.000000)">
                <rect id="Rectangle-7" fill="url(#linearGradient-1)" x="0" y="0" width="100" height="100" rx="50"></rect>
                <g id="Group-21" transform="translate(23.000000, 14.000000)">
                    <polygon id="Path-4" fill="#FFFFFF" points="2.13330078 7.92089844 15.9228516 3.09472656 29.3823242 7.92089844 29.3823242 60.3208008 15.9228516 64.6782227 2.13330078 60.3208008"></polygon>
                    <polygon id="Rectangle-8" fill="#5982F3" points="4 27 15 30 15 38 4 35"></polygon>
                    <polygon id="Rectangle-8-Copy" fill="#97D2FF" points="4 35 15 38 15 46 4 43"></polygon>
                    <polygon id="Path-3" fill="#242424" points="16.1578369 0.886901855 0.0190429688 6.27176965 0.0190429688 10.5914307 16.1578369 5.08392334 32.0368652 10.7476807 32.0368652 6.27176965"></polygon>
                    <path d="M2.5324707,60.226195 L16.01946,64.479451 L29.5681152,60.223971 L29.5681152,9.71439513 L16.050293,13.876435 L2.5324707,9.71439513 L2.5324707,60.226195 Z" id="Path-2" stroke="#242424" stroke-width="5"></path>
                    <rect id="Rectangle-6" fill="#242424" x="14" y="13" width="4" height="51"></rect>
                </g>
                <g id="Group-21" transform="translate(46.000000, 34.000000)">
                    <polygon id="Path-4" fill="#FFFFFF" points="2.13330078 6.83848021 15.9228516 3.09472656 29.3823242 6.83848021 29.3823242 47.4860847 15.9228516 50.86622 2.13330078 47.4860847"></polygon>
                    <polygon id="Rectangle-8" fill="#5982F3" points="4 30 15 33 15 41 4 38"></polygon>
                    <polygon id="Rectangle-8-Copy" fill="#97D2FF" points="4 38 15 41 15 49 4 46"></polygon>
                    <polygon id="Path-3" fill="#242424" points="16.1578369 0.886901855 0.0190429688 6.27176965 0.0190429688 10.5914307 16.1578369 5.08392334 32.0368652 10.7476807 32.0368652 6.27176965"></polygon>
                    <path d="M2.5324707,47.226195 L16.01946,51.479451 L29.5681152,47.223971 L29.5681152,9.71439513 L16.050293,13.876435 L2.5324707,9.71439513 L2.5324707,47.226195 Z" id="Path-2" stroke="#242424" stroke-width="5"></path>
                    <rect id="Rectangle-6" fill="#242424" x="14" y="13" width="4" height="39"></rect>
                </g>
            </g>
        </g>
    </g>
</svg>