<?xml version="1.0" encoding="UTF-8"?>
<svg width="100px" height="100px" viewBox="0 0 100 100" version="1.1" xmlns="http://www.w3.org/2000/svg" xmlns:xlink="http://www.w3.org/1999/xlink">
    <!-- Generator: Sketch 46.2 (44496) - http://www.bohemiancoding.com/sketch -->
    <title>icon_section2_structure</title>
    <desc>Created with Sketch.</desc>
    <defs>
        <linearGradient x1="50%" y1="4.03977997%" x2="50%" y2="100%" id="linearGradient-1">
            <stop stop-color="#88CCFF" offset="0%"></stop>
            <stop stop-color="#5880F3" offset="100%"></stop>
        </linearGradient>
        <rect id="path-2" x="0" y="0" width="100" height="100" rx="50"></rect>
    </defs>
    <g id="Page-1" stroke="none" stroke-width="1" fill="none" fill-rule="evenodd">
        <g id="3_板块内容" transform="translate(-550.000000, -341.000000)">
            <g id="icon_section2_structure" transform="translate(550.000000, 341.000000)">
                <mask id="mask-3" fill="white">
                    <use xlink:href="#path-2"></use>
                </mask>
                <use id="Mask" fill="url(#linearGradient-1)" xlink:href="#path-2"></use>
                <g id="Group-9" mask="url(#mask-3)">
                    <g transform="translate(23.000000, 4.000000)">
                        <g id="Group-8" stroke-width="1" fill="none" transform="translate(1.000000, 0.000000)">
                            <path d="M21.1022025,61.6003531 L43.1347613,49.5113052 L43.1347613,49.5113052 C43.6189495,49.2456358 44.2268292,49.4227804 44.4924985,49.9069687 C44.6564327,50.2057424 44.6569253,50.5674338 44.4938054,50.8666529 L32.4406996,72.9762812 L32.4406996,72.9762812 C32.3491611,73.1441949 32.211393,73.2823387 32.0437292,73.3743342 L10.0111704,85.4633821 L10.0111704,85.4633821 C9.52698212,85.7290515 8.91910245,85.5519069 8.65343313,85.0677186 C8.48949895,84.7689449 8.48900641,84.4072535 8.65212625,84.1080344 L20.7052321,61.9984061 L20.7052321,61.9984061 C20.7967706,61.8304924 20.9345386,61.6923486 21.1022025,61.6003531 Z" id="Rectangle-30" stroke="#242424" stroke-width="4" fill="#FFFFFF" transform="translate(26.572966, 67.487344) rotate(-315.000000) translate(-26.572966, -67.487344) "></path>
                            <path d="M21.0292366,51.1559086 L43.0617955,39.0668607 L43.0617955,39.0668607 C43.5459837,38.8011914 44.1538634,38.978336 44.4195327,39.4625242 C44.5834669,39.7612979 44.5839594,40.1229893 44.4208396,40.4222084 L32.3677338,62.5318367 L32.3677338,62.5318367 C32.2761952,62.6997505 32.1384272,62.8378943 31.9707634,62.9298898 L9.93820453,75.0189377 L9.93820453,75.0189377 C9.45401629,75.284607 8.84613662,75.1074624 8.5804673,74.6232742 C8.41653312,74.3245005 8.41604058,73.9628091 8.57916042,73.66359 L20.6322662,51.5539617 L20.6322662,51.5539617 C20.7238048,51.3860479 20.8615728,51.2479041 21.0292366,51.1559086 Z" id="Rectangle-30-Copy" stroke="#242424" stroke-width="4" fill="#FFFFFF" transform="translate(26.500000, 57.042899) rotate(-315.000000) translate(-26.500000, -57.042899) "></path>
                            <path d="M21.1022025,40.7114642 L43.1347613,28.6224163 L43.1347613,28.6224163 C43.6189495,28.356747 44.2268292,28.5338915 44.4924985,29.0180798 C44.6564327,29.3168535 44.6569253,29.6785449 44.4938054,29.977764 L32.4406996,52.0873923 L32.4406996,52.0873923 C32.3491611,52.255306 32.211393,52.3934498 32.0437292,52.4854453 L10.0111704,64.5744932 L10.0111704,64.5744932 C9.52698212,64.8401626 8.91910245,64.663018 8.65343313,64.1788297 C8.48949895,63.880056 8.48900641,63.5183646 8.65212625,63.2191456 L20.7052321,41.1095173 L20.7052321,41.1095173 C20.7967706,40.9416035 20.9345386,40.8034597 21.1022025,40.7114642 Z" id="Rectangle-30-Copy-3" stroke="#242424" stroke-width="4" fill="#88CCFF" transform="translate(26.572966, 46.598455) rotate(-315.000000) translate(-26.572966, -46.598455) "></path>
                            <path d="M21.1022025,30.2670198 L43.1347613,18.1779718 L43.1347613,18.1779718 C43.6189495,17.9123025 44.2268292,18.0894471 44.4924985,18.5736353 C44.6564327,18.872409 44.6569253,19.2341005 44.4938054,19.5333195 L32.4406996,41.6429478 L32.4406996,41.6429478 C32.3491611,41.8108616 32.211393,41.9490054 32.0437292,42.0410009 L10.0111704,54.1300488 L10.0111704,54.1300488 C9.52698212,54.3957181 8.91910245,54.2185735 8.65343313,53.7343853 C8.48949895,53.4356116 8.48900641,53.0739202 8.65212625,52.7747011 L20.7052321,30.6650728 L20.7052321,30.6650728 C20.7967706,30.497159 20.9345386,30.3590152 21.1022025,30.2670198 Z" id="Rectangle-30-Copy-4" stroke="#242424" stroke-width="4" fill="#FFFFFF" transform="translate(26.572966, 36.154010) rotate(-315.000000) translate(-26.572966, -36.154010) "></path>
                            <path d="M21.1022025,30.2670198 L43.1347613,18.1779718 L43.1347613,18.1779718 C43.6189495,17.9123025 44.2268292,18.0894471 44.4924985,18.5736353 C44.6564327,18.872409 44.6569253,19.2341005 44.4938054,19.5333195 L32.4406996,41.6429478 L32.4406996,41.6429478 C32.3491611,41.8108616 32.211393,41.9490054 32.0437292,42.0410009 L10.0111704,54.1300488 L10.0111704,54.1300488 C9.52698212,54.3957181 8.91910245,54.2185735 8.65343313,53.7343853 C8.48949895,53.4356116 8.48900641,53.0739202 8.65212625,52.7747011 L20.7052321,30.6650728 L20.7052321,30.6650728 C20.7967706,30.497159 20.9345386,30.3590152 21.1022025,30.2670198 Z" id="Rectangle-30-Copy-4" stroke="#242424" stroke-width="4" fill="#5880F3" transform="translate(26.572966, 36.154010) rotate(-315.000000) translate(-26.572966, -36.154010) "></path>
                            <path d="M21.1022025,19.8225753 L43.1347613,7.73352739 L43.1347613,7.73352739 C43.6189495,7.46785807 44.2268292,7.64500266 44.4924985,8.1291909 C44.6564327,8.42796459 44.6569253,8.78965601 44.4938054,9.08887508 L32.4406996,31.1985034 L32.4406996,31.1985034 C32.3491611,31.3664171 32.211393,31.5045609 32.0437292,31.5965564 L10.0111704,43.6856044 L10.0111704,43.6856044 C9.52698212,43.9512737 8.91910245,43.7741291 8.65343313,43.2899408 C8.48949895,42.9911672 8.48900641,42.6294757 8.65212625,42.3302567 L20.7052321,20.2206284 L20.7052321,20.2206284 C20.7967706,20.0527146 20.9345386,19.9145708 21.1022025,19.8225753 Z" id="Rectangle-30-Copy-5" stroke="#242424" stroke-width="4" fill="#FFFFFF" transform="translate(26.572966, 25.709566) rotate(-315.000000) translate(-26.572966, -25.709566) "></path>
                        </g>
                        <rect id="Rectangle-3" fill="#242424" x="26" y="32" width="4" height="43"></rect>
                        <rect id="Rectangle-3-Copy-3" fill="#242424" x="12" y="29" width="4" height="43"></rect>
                        <rect id="Rectangle-3-Copy-4" fill="#242424" x="39" y="29" width="4" height="43"></rect>
                        <rect id="Rectangle-3-Copy" fill="#242424" x="0" y="24" width="4" height="46" rx="2"></rect>
                        <rect id="Rectangle-3-Copy-2" fill="#242424" x="51" y="24" width="4" height="46" rx="2"></rect>
                    </g>
                </g>
            </g>
        </g>
    </g>
</svg>