<?xml version="1.0" encoding="UTF-8"?>
<svg width="100px" height="100px" viewBox="0 0 100 100" version="1.1" xmlns="http://www.w3.org/2000/svg" xmlns:xlink="http://www.w3.org/1999/xlink">
    <!-- Generator: Sketch 46.2 (44496) - http://www.bohemiancoding.com/sketch -->
    <title>icon_section5_safety</title>
    <desc>Created with Sketch.</desc>
    <defs>
        <linearGradient x1="50%" y1="2.9555963%" x2="50%" y2="100%" id="linearGradient-1">
            <stop stop-color="#FF80B3" offset="0%"></stop>
            <stop stop-color="#FF2F2F" offset="100%"></stop>
        </linearGradient>
        <path d="M40.8540382,38.3897915 L51.4240975,31 L62.1358022,38.3906119 L62.1358022,38.3906119 C62.6769183,38.7639585 63,39.3793906 63,40.0368055 L63,79 L63,79 C63,80.1045695 62.1045695,81 61,81 L42,81 L42,81 C40.8954305,81 40,80.1045695 40,79 L40,40.028929 L40,40.028929 C40,39.3758862 40.3188248,38.7639726 40.8540382,38.3897915 Z" id="path-2"></path>
        <rect id="path-3" x="51" y="53" width="11" height="16"></rect>
        <path d="M65.8612689,28.8789454 L75,27.5987392 L75,35.4015266 L65.8612689,34.1213204 L65.8612689,34.1213204 C65.3674086,34.0521377 65,33.6296728 65,33.1309904 L65,29.8692754 L65,29.8692754 C65,29.370593 65.3674086,28.9481282 65.8612689,28.8789454 Z" id="path-4"></path>
    </defs>
    <g id="Page-1" stroke="none" stroke-width="1" fill="none" fill-rule="evenodd">
        <g id="3_板块内容" transform="translate(-860.000000, -2351.000000)">
            <g id="icon_section5_safety" transform="translate(860.000000, 2351.000000)">
                <rect id="Rectangle-7" fill="url(#linearGradient-1)" x="0" y="0" width="100" height="100" rx="50"></rect>
                <g id="Rectangle-27">
                    <use fill="#FFFFFF" fill-rule="evenodd" xlink:href="#path-2"></use>
                    <path stroke="#242424" stroke-width="4" d="M51.4316277,33.4350433 L42,40.028929 L42,79 L61,79 L61,40.0368055 L51.4316277,33.4350433 Z"></path>
                </g>
                <g id="Rectangle-28">
                    <use fill="#FFFFFF" fill-rule="evenodd" xlink:href="#path-3"></use>
                    <rect stroke="#242424" stroke-width="4" x="53" y="55" width="7" height="12"></rect>
                </g>
                <g id="Rectangle-29">
                    <use fill="#FFFFFF" fill-rule="evenodd" xlink:href="#path-4"></use>
                    <path stroke="#242424" stroke-width="4" d="M65.5838066,26.8982852 L77,25.299039 L77,37.7012268 L65.5838066,36.1019806 C64.1022258,35.8944322 63,34.6270378 63,33.1309904 L63,29.8692754 C63,28.373228 64.1022258,27.1058336 65.5838066,26.8982852 Z"></path>
                </g>
                <path d="M31,24 L31,24 L31,24 C31,28.418278 34.581722,32 39,32 L63,32" id="Path-9" stroke="#242424" stroke-width="4" stroke-linecap="round" stroke-linejoin="round"></path>
                <path d="M38,32 L38,32 L38,32 C30.8202983,32 25,37.8202983 25,45 L25,69" id="Path-10" stroke="#242424" stroke-width="4"></path>
                <polygon id="Rectangle-31" fill="#FF3234" points="45 42 51.4658203 38 58 42 58 46 45 46"></polygon>
                <rect id="Rectangle-31-Copy" fill="#FF80B3" x="45" y="46" width="13" height="6"></rect>
            </g>
        </g>
    </g>
</svg>