<?xml version="1.0" encoding="UTF-8"?>
<svg width="100px" height="100px" viewBox="0 0 100 100" version="1.1" xmlns="http://www.w3.org/2000/svg" xmlns:xlink="http://www.w3.org/1999/xlink">
    <!-- Generator: Sketch 46.2 (44496) - http://www.bohemiancoding.com/sketch -->
    <title>icon_section5_park</title>
    <desc>Created with Sketch.</desc>
    <defs>
        <linearGradient x1="50%" y1="2.9555963%" x2="50%" y2="100%" id="linearGradient-1">
            <stop stop-color="#FF80B3" offset="0%"></stop>
            <stop stop-color="#FF2F2F" offset="100%"></stop>
        </linearGradient>
        <rect id="path-2" x="0" y="0" width="17" height="50"></rect>
        <path d="M22,36 L39,36 L21.9375,22 L33,22 L21.75,12 L29,12 L19.5,3 L10,12 L17.25,12 L6,22 L17.0625,22 L0,36 L17,36 L17,44.5 C17,45.8807119 18.1192881,47 19.5,47 C20.8807119,47 22,45.8807119 22,44.5 L22,36 Z" id="path-3"></path>
    </defs>
    <g id="Page-1" stroke="none" stroke-width="1" fill="none" fill-rule="evenodd">
        <g id="3_板块内容" transform="translate(-550.000000, -2351.000000)">
            <g id="icon_section5_park" transform="translate(550.000000, 2351.000000)">
                <rect id="Rectangle-7" fill="url(#linearGradient-1)" x="0" y="0" width="100" height="100" rx="50"></rect>
                <g id="Group-16" transform="translate(23.000000, 24.000000)">
                    <g id="Group-15" transform="translate(35.000000, 0.000000)">
                        <g id="Rectangle-10">
                            <use fill="#FFFFFF" fill-rule="evenodd" xlink:href="#path-2"></use>
                            <rect stroke="#242424" stroke-width="4" x="2" y="2" width="13" height="46"></rect>
                        </g>
                        <rect id="Rectangle-11" fill="#242424" x="7" y="6" width="9" height="2"></rect>
                        <rect id="Rectangle-11-Copy-3" fill="#242424" x="7" y="18" width="9" height="2"></rect>
                        <rect id="Rectangle-11-Copy-4" fill="#242424" x="7" y="30" width="9" height="2"></rect>
                        <rect id="Rectangle-11-Copy-7" fill="#242424" x="7" y="42" width="9" height="2"></rect>
                        <rect id="Rectangle-11-Copy" fill="#242424" x="11" y="10" width="5" height="2"></rect>
                        <rect id="Rectangle-11-Copy-5" fill="#242424" x="11" y="22" width="5" height="2"></rect>
                        <rect id="Rectangle-11-Copy-8" fill="#242424" x="11" y="34" width="5" height="2"></rect>
                        <rect id="Rectangle-11-Copy-2" fill="#242424" x="11" y="14" width="5" height="2"></rect>
                        <rect id="Rectangle-11-Copy-6" fill="#242424" x="11" y="26" width="5" height="2"></rect>
                        <rect id="Rectangle-11-Copy-9" fill="#242424" x="11" y="38" width="5" height="2"></rect>
                    </g>
                    <g id="Combined-Shape" stroke-linecap="round" stroke-linejoin="round">
                        <use fill="#FFFFFF" fill-rule="evenodd" xlink:href="#path-3"></use>
                        <path stroke="#242424" stroke-width="4" d="M24,38 L24,44.5 C24,46.9852814 21.9852814,49 19.5,49 C17.0147186,49 15,46.9852814 15,44.5 L15,38 L-5.59049956,38 L11.4720004,24 L0.739601355,24 L11.9896014,14 L4.98083282,14 L19.5,0.24499951 L34.0191672,14 L27.0103986,14 L38.2603986,24 L27.5279996,24 L44.5904996,38 L24,38 Z"></path>
                    </g>
                    <polygon id="Rectangle-12" fill="#FF3031" points="15 25 24 25 30 30 9 30"></polygon>
                    <polygon id="Rectangle-12-Copy" fill="#FF80B3" points="9 30 30 30 36 35 3 35"></polygon>
                </g>
            </g>
        </g>
    </g>
</svg>