<?xml version="1.0" encoding="UTF-8"?>
<svg width="100px" height="100px" viewBox="0 0 100 100" version="1.1" xmlns="http://www.w3.org/2000/svg" xmlns:xlink="http://www.w3.org/1999/xlink">
    <!-- Generator: Sketch 46.2 (44496) - http://www.bohemiancoding.com/sketch -->
    <title>icon_hawkeye_icon3</title>
    <desc>Created with Sketch.</desc>
    <defs>
        <linearGradient x1="0%" y1="50%" x2="100%" y2="50%" id="linearGradient-1">
            <stop stop-color="#B1E2AF" offset="0%"></stop>
            <stop stop-color="#6ED0C1" offset="100%"></stop>
        </linearGradient>
        <rect id="path-2" x="0" y="0" width="25" height="25" rx="3"></rect>
        <rect id="path-3" x="0" y="27" width="25" height="25" rx="3"></rect>
        <rect id="path-4" x="27" y="0" width="25" height="25" rx="3"></rect>
        <path d="M30,27 L49,27 L49,27 C50.6568542,27 52,28.3431458 52,30 L52,39.5 L52,39.5 C52,46.4035594 46.4035594,52 39.5,52 L30,52 L30,52 C28.3431458,52 27,50.6568542 27,49 L27,30 L27,30 C27,28.3431458 28.3431458,27 30,27 Z" id="path-5"></path>
    </defs>
    <g id="Page-1" stroke="none" stroke-width="1" fill="none" fill-rule="evenodd">
        <g id="5_鹰眼评分体系" transform="translate(-300.000000, -1113.000000)">
            <g id="icon_hawkeye_icon3" transform="translate(300.000000, 1113.000000)">
                <rect id="Rectangle-7-Copy-2" fill="url(#linearGradient-1)" x="0" y="0" width="100" height="100" rx="50"></rect>
                <g id="Group-11" transform="translate(25.000000, 24.000000)">
                    <g id="Rectangle-2">
                        <use fill="#FFFFFF" fill-rule="evenodd" xlink:href="#path-2"></use>
                        <rect stroke="#242424" stroke-width="4" x="2" y="2" width="21" height="21" rx="3"></rect>
                    </g>
                    <g id="Rectangle-2-Copy-2">
                        <use fill="#FFFFFF" fill-rule="evenodd" xlink:href="#path-3"></use>
                        <rect stroke="#242424" stroke-width="4" x="2" y="29" width="21" height="21" rx="3"></rect>
                    </g>
                    <g id="Rectangle-2-Copy">
                        <use fill="#FFFFFF" fill-rule="evenodd" xlink:href="#path-4"></use>
                        <rect stroke="#242424" stroke-width="4" x="29" y="2" width="21" height="21" rx="3"></rect>
                    </g>
                    <g id="Rectangle-2-Copy-3">
                        <use fill="#FFFFFF" fill-rule="evenodd" xlink:href="#path-5"></use>
                        <path stroke="#242424" stroke-width="4" d="M30,29 C29.4477153,29 29,29.4477153 29,30 L29,49 C29,49.5522847 29.4477153,50 30,50 L39.5,50 C45.2989899,50 50,45.2989899 50,39.5 L50,30 C50,29.4477153 49.5522847,29 49,29 L30,29 Z"></path>
                    </g>
                </g>
            </g>
        </g>
    </g>
</svg>