<?xml version="1.0" encoding="UTF-8"?>
<svg width="100px" height="100px" viewBox="0 0 100 100" version="1.1" xmlns="http://www.w3.org/2000/svg" xmlns:xlink="http://www.w3.org/1999/xlink">
    <!-- Generator: Sketch 46.2 (44496) - http://www.bohemiancoding.com/sketch -->
    <title>icon_hawkeye_icon4</title>
    <desc>Created with Sketch.</desc>
    <defs>
        <linearGradient x1="50%" y1="2.9555963%" x2="50%" y2="100%" id="linearGradient-1">
            <stop stop-color="#FF80B3" offset="0%"></stop>
            <stop stop-color="#FF2F2F" offset="100%"></stop>
        </linearGradient>
        <circle id="path-2" cx="46.5" cy="41.5" r="18.5"></circle>
        <circle id="path-3" cx="13.5" cy="13.5" r="13.5"></circle>
    </defs>
    <g id="Page-1" stroke="none" stroke-width="1" fill="none" fill-rule="evenodd">
        <g id="5_鹰眼评分体系" transform="translate(-800.000000, -1113.000000)">
            <g id="icon_hawkeye_icon4" transform="translate(800.000000, 1113.000000)">
                <rect id="Rectangle-7-Copy-3" fill="url(#linearGradient-1)" x="0" y="0" width="100" height="100" rx="50"></rect>
                <path d="M58.2451235,52.8509259 L58.2451235,52.8509259 L58.2451235,52.8509259 C59.1541812,52.9095631 59.8738518,53.6422181 59.9162262,54.5521789 L60.9022489,75.7263334 L60.9022489,75.7263334 C60.9758151,77.306116 59.7547854,78.64642 58.1750028,78.7199862 C58.1306318,78.7220524 58.0862186,78.7230859 58.0417995,78.7230859 L58.0417995,78.7230859 L58.0417995,78.7230859 C56.4842607,78.7230859 55.221626,77.4604513 55.221626,75.9029125 C55.221626,75.8448362 55.22342,75.7867738 55.2270054,75.7288083 L56.5496713,54.3448775 L56.5496713,54.3448775 C56.6040801,53.4652354 57.3612778,52.7962516 58.2409199,52.8506604 C58.2423212,52.850747 58.2437224,52.8508356 58.2451235,52.8509259 Z" id="Rectangle-5" fill="#242424" transform="translate(58.063516, 65.785325) rotate(-30.000000) translate(-58.063516, -65.785325) "></path>
                <g id="Oval-7">
                    <use fill="#FFFFFF" fill-rule="evenodd" xlink:href="#path-2"></use>
                    <circle stroke="#242424" stroke-width="4" cx="46.5" cy="41.5" r="16.5"></circle>
                </g>
                <g id="Rectangle-44-+-Rectangle-44-Copy-Mask" transform="translate(46.500000, 41.500000) rotate(-30.000000) translate(-46.500000, -41.500000) translate(33.000000, 28.000000)">
                    <mask id="mask-4" fill="white">
                        <use xlink:href="#path-3"></use>
                    </mask>
                    <g id="Mask"></g>
                    <rect id="Rectangle-44" fill="#FF2F30" mask="url(#mask-4)" x="-4" y="0" width="31" height="6"></rect>
                    <rect id="Rectangle-44-Copy" fill="#FF81B3" mask="url(#mask-4)" x="-4" y="6" width="31" height="6"></rect>
                </g>
            </g>
        </g>
    </g>
</svg>