<?xml version="1.0" encoding="UTF-8"?>
<svg width="32px" height="32px" viewBox="0 0 32 32" version="1.1" xmlns="http://www.w3.org/2000/svg" xmlns:xlink="http://www.w3.org/1999/xlink">
    <!-- Generator: Sketch 46.2 (44496) - http://www.bohemiancoding.com/sketch -->
    <title>logo_wechat_c</title>
    <desc>Created with Sketch.</desc>
    <defs></defs>
    <g id="Symbols" stroke="none" stroke-width="1" fill="none" fill-rule="evenodd">
        <g id="logo_wechat_c">
            <g id="logo_wechat_n">
                <rect id="Rectangle-5" fill="#EA6161" opacity="0" x="0" y="0" width="32" height="32"></rect>
                <path d="M21.0800133,11.1104655 C21.4102424,11.1104655 21.7369585,11.135057 22.0636745,11.1701878 C21.1818925,7.06691519 16.7940608,4.01756538 11.7844147,4.01756538 C6.18457183,4.01756538 1.60000789,7.83276571 1.60000789,12.6808103 C1.60000789,15.4772187 3.12468281,17.7747703 5.67517584,19.5594128 L4.65638387,22.6228149 L8.21864274,20.8381724 C9.49388925,21.0876008 10.5126812,21.3475684 11.7844147,21.3475684 C12.1041046,21.3475684 12.4202814,21.3335161 12.7329452,21.3089246 C12.5362129,20.6273878 12.4167683,19.9142335 12.4167683,19.1729744 C12.4237945,14.7219074 16.2425079,11.1104654 21.0800133,11.1104655 Z M15.6031281,8.34918787 C16.3724917,8.34918787 16.8783746,8.85507079 16.8783746,9.62092131 C16.8783746,10.3832588 16.3724917,10.8961678 15.6031281,10.8961678 C14.8407907,10.8961678 14.0749401,10.3867718 14.0749401,9.62092131 C14.0784532,8.8515577 14.8407906,8.34918787 15.6031281,8.34918787 L15.6031281,8.34918787 Z M8.47509726,10.8926548 C7.70924675,10.8926548 6.93988313,10.3832588 6.93988313,9.61740824 C6.93988313,8.85155772 7.70924675,8.3456748 8.47509726,8.34567478 C9.24094778,8.34567478 9.7468307,8.84804463 9.74683073,9.61740824 C9.74683073,10.3832588 9.2409478,10.8926548 8.47509726,10.8926548 Z M30.379125,19.0500168 C30.379125,14.9783619 26.3039571,11.6585053 21.7264192,11.6585053 C16.8783746,11.6585053 13.0631743,14.9783619 13.0631743,19.0500168 C13.0631743,23.1322109 16.8783746,26.4415283 21.7264192,26.4415283 C22.7416982,26.4415283 23.7640032,26.1885869 24.7827952,25.9321323 L27.5756905,27.4638334 L26.80984,24.9168534 C28.8544501,23.3816393 30.379125,21.3475684 30.379125,19.0500168 L30.379125,19.0500168 Z M18.9159586,17.7747703 C18.4100757,17.7747703 17.8971666,17.2724004 17.8971666,16.7559783 C17.8971666,16.2500954 18.4100757,15.7371863 18.9159586,15.7371863 C19.6888353,15.7371863 20.1912051,16.2465823 20.1912051,16.7559783 C20.1912051,17.2724004 19.6888353,17.7747703 18.9159586,17.7747703 Z M24.5193145,17.7747703 C24.0169447,17.7747703 23.5075487,17.2724004 23.5075487,16.7559783 C23.5075487,16.2500954 24.0169447,15.7371863 24.5193145,15.7371863 C25.285165,15.7371863 25.794561,16.2465823 25.794561,16.7559783 C25.794561,17.2724004 25.285165,17.7747703 24.5193145,17.7747703 L24.5193145,17.7747703 Z" id="Shape" fill="#5CD353" fill-rule="nonzero"></path>
            </g>
        </g>
    </g>
</svg>