<?xml version="1.0" encoding="UTF-8"?>
<svg width="142px" height="38px" viewBox="0 0 142 38" version="1.1" xmlns="http://www.w3.org/2000/svg" xmlns:xlink="http://www.w3.org/1999/xlink">
    <!-- Generator: Sketch 46.2 (44496) - http://www.bohemiancoding.com/sketch -->
    <title>logo_cooperate_hezuomaifang</title>
    <desc>Created with Sketch.</desc>
    <defs>
        <rect id="path-1" x="0" y="0" width="180" height="60"></rect>
        <polygon id="path-3" points="0 30.4074769 0 0.0115167011 30.9833849 0.0115167011 30.9833849 30.4074769"></polygon>
        <path d="M7.72748673,8.85999678 C7.29030059,8.21833112 6.80072368,7.36903499 6.36025445,6.31907878 C5.54376197,4.37298649 4.81850068,3.26652003 3.60267168,2.13650229 C2.04704651,0.807798273 1.43569083,0.597003083 0.81526539,0.303111819 C0.55971237,0.187382838 0.303769045,0.091115342 0.049174145,0.0129016916 L0.049174145,8.85999678 L7.72748673,8.85999678 L7.72748673,8.85999678 Z" id="path-5"></path>
        <path d="M0.659798906,1.44079484 C-0.714430917,3.27207458 0.189984952,6.6332997 3.44715185,9.4350705 C3.45563475,9.44795706 5.40435431,11.1728116 7.59998495,12.4736318 C10.1598468,13.8316083 12.8485527,13.6611391 14.4490465,12.5832231 C15.3381505,12.1259725 15.5644679,11.757317 15.2687934,11.1930857 C15.1136471,10.9250231 14.8375527,10.6745129 14.4845787,10.3225766 C13.9770451,9.7995601 12.9919617,8.54284306 12.1755759,6.59680631 C11.3590834,4.65071401 10.6338222,3.54424756 9.41799316,2.41422981 C7.86236799,1.0855258 7.25101231,0.874730606 6.63058687,0.580839341 C5.76463748,0.188688079 4.89420657,0.0199963817 4.08694391,0.0199963817 C2.57218605,0.0199963817 1.28022435,0.614055553 0.659798906,1.44079484 Z" id="path-7"></path>
        <path d="M0.0329846249,0.0219682471 C0.485611934,1.45597196 1.53154395,3.01765665 3.18039398,4.43597509 C3.18887688,4.44886164 5.13759644,6.1737162 7.33322709,7.47453637 C7.5027524,7.56446755 7.67284279,7.64769547 7.84314476,7.72440049 L7.84314542,0.0219682471 L0.0329846249,0.0219682471 L0.0329846249,0.0219682471 Z" id="path-9"></path>
    </defs>
    <g id="Page-1" stroke="none" stroke-width="1" fill="none" fill-rule="evenodd">
        <g id="1_首页" transform="translate(-540.000000, -3860.000000)">
            <g id="logo_cooperate_hezuomaifang" transform="translate(520.000000, 3850.000000)">
                <g>
                    <mask id="mask-2" fill="white">
                        <use xlink:href="#path-1"></use>
                    </mask>
                    <use id="Mask" fill="#000000" style="mix-blend-mode: color;" opacity="0" xlink:href="#path-1"></use>
                    <g id="Group-15" mask="url(#mask-2)">
                        <g transform="translate(20.000000, 10.000000)">
                            <path d="M48.7188219,23.2485149 C48.7188219,23.0207921 48.6497929,22.0643564 48.6497929,21.8821782 C48.6958122,20.7435644 48.7878509,19.6960396 48.7878509,18.5118812 C48.7878509,18.2158416 48.7878509,18.170297 48.7188219,17.9653465 L48.7878509,17.6920792 C48.9028992,17.4643564 48.6497929,16.849505 48.6497929,16.1207921 C48.5807639,15.8475248 48.235619,15.7108911 48.235619,15.3693069 C48.235619,15.0960396 48.7878509,14.7544554 49.0639669,14.7544554 C49.1790152,14.7544554 49.6161988,15.0732673 50.2374597,15.3009901 C50.490566,15.3237624 50.835711,15.2782178 50.9967786,15.0960396 C51.0658076,15.0960396 51.5490106,15.1643564 51.6410492,15.1643564 C51.6870686,15.1643564 51.9171652,15.0960396 51.9631845,15.0960396 L53.8959963,15.0960396 L53.988035,14.9594059 C55.2535665,15.0049505 55.9438564,14.7772277 56.8872526,14.6861386 C57.1173493,14.2534653 57.6925909,13.8435644 58.2218132,13.8435644 C58.5209388,13.8663366 58.9351127,14.2306931 59.1882191,14.4811881 C59.671422,14.9366337 60.3387023,14.7544554 60.3387023,15.4376238 C60.3387023,16.1663366 59.7864703,15.7336634 59.7864703,16.4623762 C59.7864703,16.8039604 59.878509,17.1455446 59.878509,17.4871287 C59.878509,20.7891089 58.9121031,21.6544554 58.1297745,21.6544554 C57.5315232,21.6544554 57.5315232,20.9712871 56.933272,20.7891089 C56.0819144,20.7891089 55.5987115,20.8346535 55.0004602,20.8346535 C55.0464795,20.8346535 54.2411413,20.7891089 53.849977,20.7891089 C53.6658997,20.7891089 53.0446387,20.9257426 52.4693971,20.9257426 L51.9631845,20.9257426 C51.4569719,20.9257426 50.7896917,20.9485149 50.5826047,21.2445545 C50.5826047,21.6316832 50.5135757,22.1782178 50.5135757,22.4287129 C50.3064887,22.5881188 49.9383341,23.4306931 49.4091118,23.4306931 C49.2710538,23.4306931 49.2710538,23.2940594 49.1329959,23.2940594 C49.1329959,23.3623762 49.1560055,23.4079208 49.1560055,23.4762376 C49.1560055,23.4990099 49.1329959,23.5217822 49.0639669,23.5217822 C48.8568799,23.5217822 48.7878509,23.3851485 48.7188219,23.2485149 Z M42,15.9841584 C42,15.6881188 42.8973769,15.3465347 43.0584445,15.3693069 C43.2655315,15.3693069 43.6797055,14.549505 44.2089277,14.3445545 C44.4850437,14.3445545 44.7151404,13.980198 44.8992177,13.8435644 L47.0621261,11.7485149 C47.1311551,11.6574257 47.4072711,11.2475248 47.4763,11.2019802 L47.890474,10.8376238 C47.959503,10.7237624 48.235619,10.3594059 48.4427059,10.1544554 C48.4427059,10.0861386 48.7878509,9.88118812 48.7878509,9.81287129 C49.1790152,8.81089109 49.8693051,8.17326733 50.2374597,7.35346535 C50.3755177,7.17128713 50.7206627,6.8980198 50.7206627,6.53366337 C50.7206627,6.30594059 51.111827,6.05544554 51.2728946,5.85049505 C51.5950299,5.25841584 52.7455131,3.27722772 52.6534745,2.75346535 C52.6534745,2.34356436 52.1012425,2.20693069 52.1012425,2.07029703 C52.1012425,1.77425743 52.5844455,1.70594059 52.7455131,1.66039604 C52.9295904,1.61485149 53.3437644,1.38712871 53.6198803,1.38712871 C54.2641509,1.38712871 54.7243442,1.66039604 55.2765762,1.93366337 C55.7597791,2.18415842 55.9668661,1.88811881 56.1049241,2.70792079 C56.1049241,2.75346535 55.8288081,3.02673267 55.8288081,3.11782178 C55.5987115,3.52772277 55.5987115,3.73267327 55.5066728,4.21089109 C55.7367694,4.27920792 55.6217211,4.0970297 56.2429821,5.91881188 C56.3350207,5.91881188 56.4730787,6.05544554 56.4730787,6.12376238 C56.3580304,6.28316832 56.726185,6.69306931 57.3014266,7.49009901 C57.2784169,7.67227723 58.9121031,9.33465347 59.0501611,9.33465347 C59.0961804,9.4029703 59.7864703,9.67623762 59.878509,9.74455446 C59.9015186,9.94950495 60.4767602,10.1316832 60.8909342,10.3821782 C61.3051081,10.3821782 62.0874367,10.9970297 62.6396687,11.2475248 C62.9157846,11.3841584 63.1919006,11.6118812 63.4680166,11.7485149 C64.0662678,11.7940594 64.6415094,12.2039604 65.2627704,12.4316832 C65.2627704,12.6138614 66.5052922,12.4544554 66.5052922,12.8415842 C66.5052922,13.0237624 65.6769443,13.160396 65.1247124,13.160396 C64.8946157,13.2970297 63.0768523,14.549505 62.7777266,14.3445545 C62.7086977,14.3445545 62.271514,14.0712871 62.2254947,14.0712871 C61.8573401,14.0485149 61.7653014,13.7752475 61.4431661,13.570297 C60.4767602,13.0237624 59.602393,12.4316832 58.8200644,11.6574257 C57.9917165,11.6574257 58.0147262,10.3138614 57.1173493,9.53960396 L56.3350207,7.96831683 L56.3350207,7.6950495 L55.5066728,6.05544554 C55.3686148,5.75940594 55.4146341,5.48613861 55.3686148,5.21287129 C55.2535665,4.82574257 55.0694892,4.48415842 54.8624022,4.21089109 C54.2641509,4.11980198 54.1721123,4.66633663 53.988035,4.93960396 C53.711919,5.3039604 53.435803,5.62277228 53.2057064,5.98712871 C53.2057064,6.30594059 52.6994938,6.71584158 52.3313392,7.08019802 C51.5950299,8.44653465 50.490566,9.08415842 49.6852278,10.6554455 C49.4781408,11.5207921 51.3419236,11.3841584 51.5490106,11.3841584 L51.6870686,11.2475248 L53.4818224,11.2475248 C53.4127934,11.2475248 54.2411413,11.0653465 54.5862862,11.0653465 C55.0004602,10.9742574 55.3686148,11.0653465 55.7827888,10.9287129 C56.1049241,10.8376238 56.3350207,10.6554455 56.657156,10.6554455 C56.795214,10.6554455 57.0253106,10.6554455 57.1633686,10.7009901 C57.2554073,10.7009901 57.9917165,11.3841584 57.9917165,11.7940594 C57.9917165,11.8168317 57.8766682,12.0673267 57.6695812,12.1584158 L53.0216291,12.1584158 C52.5154165,12.3178218 51.9631845,12.2722772 51.4799816,12.4316832 C51.0658076,12.5683168 51.0658076,12.8188119 50.3755177,12.750495 C50.2604694,12.750495 49.3861022,11.4752475 49.2020249,11.4752475 C48.8568799,11.4752475 48.3736769,12.0217822 48.16659,12.2039604 C47.3842614,13.0237624 46.4408652,13.7069307 45.5434883,14.3445545 C45.3133916,14.4811881 45.0372757,14.5267327 44.8531983,14.6861386 C44.600092,14.8683168 43.8637828,15.4376238 43.7947538,15.4376238 C43.7487345,15.4376238 43.3805798,15.6425743 43.3345605,15.6425743 C42.9664059,15.8475248 42.6902899,16.1207921 42.2300966,16.1207921 C42.138058,16.1207921 42,16.1207921 42,15.9841584 Z M50.6516337,17.760396 C50.6516337,19.6960396 50.766682,19.7415842 51.5490106,19.7415842 C51.9171652,19.7415842 52.1932812,19.6960396 52.5154165,19.6960396 C52.7455131,19.6960396 52.8835711,19.7415842 53.0676484,19.7415842 C53.1596871,19.7415842 53.435803,19.6049505 53.4818224,19.6049505 C53.9420156,19.6049505 54.5862862,19.5594059 54.6783249,19.5594059 C55.5987115,19.5594059 56.9792913,19.7188119 56.9792913,19.0356436 C56.9792913,18.9673267 56.933272,18.8990099 56.933272,18.7851485 C56.933272,18.7168317 57.0253106,18.4435644 57.0253106,18.3752475 C57.0253106,17.8287129 57.1173493,17.350495 57.1173493,16.9405941 C57.07133,16.6445545 57.1633686,16.3257426 56.933272,16.0524752 C56.1049241,16.0524752 55.7827888,16.1891089 55.1385182,16.1891089 C54.7933732,16.2574257 54.3791993,16.1891089 54.0340543,16.2574257 C53.988035,16.2574257 53.3437644,16.3940594 53.2977451,16.3940594 L53.1136677,16.3940594 C53.1826967,16.3940594 52.1012425,16.6673267 51.5490106,16.6673267 C50.559595,16.6673267 50.6516337,16.9861386 50.6516337,17.6920792 L50.6516337,17.760396 Z M82.5200184,22.9752475 C82.5200184,20.7435644 82.4279798,17.919802 82.4279798,15.0960396 C82.4279798,12.7732673 82.2899218,11.7940594 82.1518638,10.2227723 C82.1058445,9.88118812 82.2439024,9.06138614 81.6916705,9.06138614 C80.7482743,9.06138614 81.1164289,9.28910891 80.35711,10.0178218 C79.4597331,10.7920792 78.7234238,11.6574257 77.8720663,12.4316832 C77.8260469,12.4772277 77.7340083,12.5 77.6649793,12.5 C77.5729406,12.5 77.480902,12.4772277 77.411873,12.4772277 L77.411873,12.1584158 C78.1021629,11.4752475 78.4473079,10.7009901 78.9305108,10.0861386 C78.9305108,10.0178218 79.2526461,9.74455446 79.2526461,9.67623762 C80.4721583,8.05940594 81.1624482,6.14653465 81.8757478,4.52970297 C82.0828348,4.07425743 82.3819604,3.5960396 82.3819604,3.02673267 C82.3819604,2.57128713 81.9677865,2.34356436 81.5536125,2.20693069 C81.4385642,1.84257426 82.5660377,1.38712871 82.6580764,1.38712871 C83.0722503,1.38712871 83.6935113,1.88811881 83.9696272,2.02475248 C84.1997239,1.91089109 84.4528302,2.57128713 84.7289462,2.57128713 C85.0050621,2.70792079 85.2811781,2.48019802 85.2811781,3.02673267 C85.1201104,3.61881188 84.7519558,3.93762376 84.4528302,4.39306931 C83.9236079,5.12178218 83.4173953,5.8960396 83.0032214,6.53366337 C82.819144,6.82970297 82.5660377,6.8980198 82.5660377,7.28514851 C82.4049701,7.51287129 82.9111827,7.55841584 83.0722503,7.55841584 C83.8315693,7.55841584 84.9820525,7.62673267 85.2121491,7.62673267 C85.902439,7.64950495 86.7307869,7.44455446 87.4210769,7.35346535 C88.1803958,7.23960396 88.4335021,6.19207921 89.2158306,6.19207921 C89.3538886,6.19207921 90.2742752,7.30792079 90.9645651,7.9 C91.1486424,8.81089109 89.0317533,8.46930693 87.9733088,8.71980198 L85.1431201,8.71980198 C84.4758399,9.67623762 83.9696272,9.08415842 83.9696272,9.81287129 C83.9696272,11.6346535 83.9696272,12.0445545 84.1076852,12.4316832 L84.2457432,12.5683168 C84.4758399,12.5683168 85.0740911,12.5910891 85.3962264,12.5910891 C85.7413714,12.5910891 86.1325357,12.5455446 86.454671,12.2039604 C86.6847676,12.1356436 86.9378739,11.9534653 87.2830189,11.6118812 C87.4670962,11.4524752 87.6511735,11.0653465 87.9733088,11.0653465 C88.2034054,11.0653465 88.8706857,12.2267327 89.9061206,12.9782178 C89.9981592,13.0237624 89.9981592,13.1148515 89.9981592,13.2514851 C89.9981592,13.5475248 89.1698113,13.5475248 88.4795214,13.5475248 C88.0423378,13.5475248 86.7077773,13.7069307 85.6263231,13.7069307 C85.0280718,13.7069307 84.3838012,13.570297 84.1767142,14.1168317 C84.1767142,14.6405941 84.0846756,16.849505 84.3838012,16.8039604 L86.8688449,16.8039604 C87.2139899,16.7356436 87.6281638,16.7356436 87.9733088,16.6673267 C88.640589,16.5079208 89.399908,15.3237624 89.5839853,15.4376238 C90.0211689,15.3237624 90.7114588,16.6673267 91.5167971,17.350495 C91.5167971,17.4871287 91.3787391,17.5554455 91.3787391,17.6920792 C91.2636908,17.8970297 89.054763,17.8970297 89.0777727,17.8970297 C88.4795214,17.8742574 88.0423378,17.760396 87.6281638,17.760396 C87.4670962,17.6920792 87.0759319,17.8287129 86.6617579,17.8287129 C86.247584,17.760396 85.764381,17.6920792 85.4192361,17.6920792 C84.3607915,17.6920792 84.3147722,18.0108911 84.3147722,18.4435644 L84.3147722,22.7475248 C84.3147722,22.9752475 83.9696272,23.1118812 83.9005983,23.1574257 C83.6935113,23.3851485 83.6244823,23.5217822 83.2793373,23.5217822 C83.0032214,23.5217822 82.7040957,23.1574257 82.5200184,22.9752475 Z M74.6967326,22.0643564 C74.6967326,21.449505 74.8347906,20.9485149 74.8347906,20.3792079 C74.8347906,19.4683168 74.9728486,17.6920792 74.9728486,16.9633663 L74.9728486,16.5306931 C74.9728486,16.3940594 75.0418776,15.4376238 75.0418776,15.3009901 L75.0418776,15.2326733 C74.9498389,15.2326733 74.9728486,14.2079208 74.9728486,13.570297 C74.9728486,13.5247525 74.9038196,12.750495 74.9038196,12.7049505 C74.9038196,12.3178218 75.0418776,10.5188119 74.5586746,10.5188119 C74.0754717,10.5188119 73.6843074,11.2247525 73.3851818,11.6118812 C72.2807179,12.7049505 71.0842154,13.7069307 69.9337322,14.7544554 C69.7036355,14.7544554 69.3354809,15.5742574 68.7372296,15.5742574 C68.6912103,15.5742574 68.5991717,15.4376238 68.5991717,15.3693069 C68.5991717,15.2326733 69.1974229,14.5950495 69.5655775,14.2534653 C69.9797515,13.8663366 70.2098481,13.319802 70.7620801,12.9782178 C71.0842154,12.5683168 71.590428,12.0673267 71.9355729,11.6574257 C73.0400368,10.3821782 74.0064427,8.99306931 74.9038196,7.55841584 C75.1109066,6.55643564 75.9622642,5.46336634 76.3534284,4.39306931 C76.3534284,4.34752475 76.4914864,3.98316832 76.4914864,3.93762376 C76.6295444,3.11782178 75.8702255,3.41386139 75.8702255,3.02673267 C75.8702255,2.73069307 76.7906121,2.2980198 77.0437184,2.2980198 C77.1127474,2.2980198 77.1587667,2.32079208 77.2277957,2.34356436 C77.066728,2.41188119 79.0685688,3.43663366 79.0685688,4.21089109 C79.0685688,5.03069307 78.4242982,5.57722772 77.9641049,6.12376238 C77.5959503,6.73861386 76.8826507,7.44455446 76.5605154,8.1049505 C76.5605154,8.30990099 76.4224574,10.0861386 76.4224574,10.2910891 C76.4224574,10.8148515 76.4914864,11.8623762 76.4914864,12.2267327 L76.4914864,12.5683168 C76.4914864,12.750495 76.5605154,14.390099 76.5605154,14.6178218 C76.5605154,16.690099 76.4224574,18.6940594 76.3534284,20.6980198 C76.3534284,20.9257426 76.3764381,21.1762376 76.3764381,21.3811881 C76.3764381,21.9960396 76.1463415,22.4287129 75.5941095,22.7475248 C75.1799356,22.8613861 74.9268293,22.3148515 74.6967326,22.0643564 Z M75.1799356,13.2970297 C75.1799356,13.6613861 75.2489646,13.7069307 75.5250805,13.8435644 C75.6401289,13.8435644 75.7321675,13.8663366 75.7321675,13.7980198 C75.7321675,13.5475248 75.5250805,13.2970297 75.1799356,13.2970297 Z M96.8090198,23.8633663 C96.8090198,23.3168317 97.3152324,23.6128713 97.9825127,22.9752475 C98.2586286,22.6108911 98.7878509,22.4970297 99.1560055,22.2237624 C99.8693051,21.7 100.306489,21.2217822 101.364933,20.7891089 C101.664059,20.5841584 102.078233,19.9237624 102.745513,19.5594059 C103.021629,19.0811881 103.780948,18.6712871 103.780948,17.9653465 C103.780948,17.7831683 103.596871,17.6465347 103.366774,17.6465347 C101.825127,17.6465347 102.216291,19.0128713 101.295904,19.0128713 C100.950759,19.0128713 100.260469,18.3980198 100.260469,17.9653465 C100.306489,17.3732673 100.467556,16.7811881 100.467556,16.1891089 C100.467556,15.7336634 100.398527,15.1871287 100.398527,14.6861386 C100.398527,14.139604 100.536585,13.1831683 100.536585,13.0465347 C100.536585,13.0009901 100.536585,12.909901 100.467556,12.7732673 L100.467556,9.4029703 C100.421537,9.33465347 100.352508,8.58316832 99.9153244,8.58316832 C99.8462954,8.81089109 99.6392085,8.99306931 99.4321215,8.99306931 C99.1560055,8.99306931 98.3276576,8.44653465 98.3276576,8.26435644 C98.3276576,8.37821782 98.5347446,6.21485149 98.5347446,4.68910891 C98.5347446,3.84653465 97.8444547,3.25445545 97.8444547,2.63960396 C97.7754257,2.57128713 98.0055223,2.36633663 98.0515416,2.36633663 L99.2250345,2.36633663 C99.0869765,2.43465347 99.0869765,2.5029703 99.0869765,2.63960396 C99.0869765,2.77623762 99.0869765,2.84455446 99.2940635,2.84455446 C99.5241601,2.84455446 99.7082375,2.22970297 99.9843534,2.22970297 C100.467556,2.22970297 100.88173,2.2980198 101.364933,2.2980198 C103.711919,2.2980198 105.966866,1.95643564 108.221813,1.95643564 L108.705016,1.95643564 C108.843074,1.88811881 108.912103,1.88811881 108.981132,1.88811881 C109.09618,1.88811881 109.418316,1.95643564 109.602393,1.95643564 C109.556374,1.95643564 110.430741,1.88811881 110.913944,1.88811881 C110.982973,1.88811881 111.328118,1.81980198 111.397147,1.81980198 C111.719282,1.81980198 111.949379,1.34158416 112.156466,1.34158416 C112.340543,1.34158416 112.777727,1 113.122872,1 C113.398988,1 113.95122,1.61485149 114.250345,1.75148515 C114.57248,1.95643564 114.848596,1.81980198 114.848596,2.36633663 C114.848596,2.98118812 114.296364,2.77623762 114.296364,3.45940594 C114.296364,4.07425743 114.296364,4.68910891 114.388403,5.3039604 C114.388403,5.37227723 114.434422,5.78217822 114.434422,5.85049505 C114.526461,6.71584158 113.790152,6.73861386 113.26093,6.8980198 C113.191901,6.8980198 112.777727,6.80693069 112.708698,6.80693069 C111.788311,6.78415842 111.811321,6.8980198 111.811321,7.17128713 C111.673263,7.17128713 111.650253,7.08019802 111.650253,7.01188119 C111.650253,6.92079208 111.673263,6.85247525 111.673263,6.80693069 C111.604234,6.80693069 111.328118,6.8980198 111.259089,6.8980198 C111.075012,6.78415842 110.890934,6.6019802 110.637828,6.6019802 C109.694432,6.57920792 108.728026,6.67029703 107.78463,6.67029703 C107.73861,6.67029703 107.324436,6.6019802 107.232398,6.6019802 C106.703175,6.71584158 106.104924,6.76138614 105.299586,6.76138614 L103.228716,6.76138614 C102.768523,6.8980198 102.216291,6.94356436 101.710078,6.94356436 C101.57202,6.94356436 101.502991,6.8980198 101.433962,6.8980198 C100.858721,6.8980198 100.582605,7.42178218 100.467556,7.85445545 C100.674643,8.15049505 101.180856,8.03663366 101.502991,8.03663366 C101.549011,8.03663366 102.814542,8.53762376 102.814542,9.08415842 L102.814542,9.12970297 C103.044639,9.12970297 104.057064,9.31188119 105.299586,8.94752475 C105.529682,8.99306931 105.71376,8.99306931 105.943856,9.08415842 C105.989876,8.92475248 106.887253,8.85643564 107.04832,8.85643564 C107.370456,8.83366337 107.669581,8.94752475 108.014726,8.94752475 C108.290842,8.94752475 108.705016,8.83366337 109.326277,8.67425743 L109.464335,8.71980198 C110.49977,8.92475248 110.384722,8.03663366 111.259089,8.03663366 C111.535205,8.03663366 111.742292,8.12772277 112.018408,8.26435644 C112.639669,8.44653465 113.122872,8.58316832 113.122872,9.35742574 C113.122872,9.53960396 112.846756,9.76732673 112.708698,9.94950495 C112.616659,10.2910891 112.363553,10.7465347 112.363553,11.1792079 C112.363553,11.270297 112.432582,11.4069307 112.501611,11.4069307 C112.777727,12.750495 112.915785,14.1168317 112.915785,15.5059406 C112.639669,15.9158416 112.823746,16.7356436 112.294524,17.1 C112.156466,17.2366337 111.673263,18.0564356 111.535205,18.1930693 C111.466176,18.2613861 111.328118,18.329703 111.259089,18.3980198 C111.328118,18.3980198 111.466176,18.5346535 111.535205,18.5346535 C112.018408,18.7851485 112.57064,19.0128713 113.191901,19.0128713 C113.997239,19.6277228 114.388403,20.0376238 114.388403,21.1306931 C114.342384,21.3811881 114.250345,22.0188119 114.020249,22.1554455 C113.445007,22.4970297 113.375978,22.7019802 112.846756,22.7019802 C112.57064,22.7930693 112.156466,21.9732673 111.949379,21.6772277 C111.88035,21.5633663 111.719282,21.4950495 111.535205,21.4039604 C111.16705,20.6980198 111.052002,20.5158416 110.568799,20.1059406 C110.108606,20.1059406 109.855499,19.0811881 109.11919,19.0811881 C108.728026,18.5118812 108.014726,18.3524752 107.508514,17.9653465 C107.347446,17.8287129 107.186378,17.6009901 107.09434,17.6465347 L106.956282,17.6920792 C106.427059,17.7376238 106.289001,17.5554455 106.081914,17.5554455 C105.575702,17.5554455 105.115509,17.6009901 105.115509,17.7831683 C105.115509,18.4207921 105.943856,18.6712871 105.943856,19.2178218 C105.943856,20.2881188 104.448228,20.8574257 103.734929,20.8574257 C103.64289,20.8574257 103.182697,21.2673267 103.090658,21.2673267 C102.400368,21.5405941 102.078233,21.7455446 101.641049,21.950495 C101.57202,21.950495 101.295904,22.2237624 101.226875,22.2237624 C100.858721,22.4742574 99.9843534,22.4970297 99.8462954,22.6336634 C99.7772665,22.6564356 99.1560055,23.2485149 98.8108606,23.1118812 C98.7418316,23.1118812 98.4657156,23.4534653 98.3966866,23.4534653 C97.8444547,23.5445545 97.5683387,24 96.9930971,24 C96.8550391,24 96.8090198,24 96.8090198,23.8633663 Z M102.400368,16.1891089 C102.538426,16.5534653 102.538426,16.5534653 102.883571,16.5534653 C103.021629,16.5534653 103.919006,16.5990099 104.057064,16.5990099 C104.632306,16.5990099 105.276576,16.5534653 105.989876,16.5534653 C106.081914,16.4623762 106.519098,16.4168317 107.09434,16.4168317 C107.301427,16.3712871 107.485504,16.4623762 107.600552,16.4623762 C107.715601,16.4623762 109.717441,16.4168317 110.085596,16.4168317 C110.430741,16.4168317 110.775886,16.3257426 110.775886,15.9158416 C110.775886,15.3693069 110.752876,14.6861386 110.637828,14.5039604 C110.637828,14.0940594 110.614818,13.7752475 110.706857,13.5930693 C110.706857,13.5019802 110.637828,13.2970297 110.637828,13.1831683 L110.637828,9.67623762 C110.49977,9.67623762 110.49977,9.76732673 110.430741,9.76732673 C110.246664,9.76732673 110.246664,9.74455446 110.154625,9.67623762 C109.694432,9.67623762 108.497929,9.76732673 108.4289,9.81287129 C108.037736,9.76732673 107.922688,9.81287129 107.73861,9.63069307 C107.600552,9.58514851 107.232398,9.81287129 107.04832,9.81287129 L104.747354,9.81287129 L104.563277,9.9039604 C104.33318,9.9039604 104.149103,9.81287129 103.919006,9.81287129 C103.734929,9.81287129 103.458813,9.94950495 103.228716,9.94950495 C102.423378,9.94950495 102.469397,10.4732673 102.469397,11.0425743 C102.469397,11.4524752 102.492407,11.4069307 102.538426,11.4524752 L104.609296,11.4524752 C104.701335,11.4524752 104.885412,11.4069307 104.977451,11.4069307 C105.828808,11.4069307 106.150943,11.4524752 108.014726,11.4524752 C108.566958,10.9059406 108.313852,10.7009901 109.050161,10.7237624 L109.602393,11.270297 C109.671422,12.3633663 107.807639,11.9990099 107.600552,12.2267327 C107.255407,12.2722772 106.956282,12.090099 106.634146,12.090099 C106.40405,12.090099 106.265992,12.2267327 106.081914,12.2267327 L105.253566,12.2267327 C105.161528,12.2267327 104.701335,12.3633663 104.609296,12.3633663 L104.563277,12.3633663 L104.33318,12.2722772 C104.287161,12.2722772 103.919006,12.3633663 103.780948,12.3633663 C103.527842,12.5227723 102.469397,12.2039604 102.469397,12.8643564 L102.469397,13.6841584 C102.92959,13.729703 103.435803,13.8207921 103.919006,13.8207921 C105.00046,13.8207921 106.634146,13.8663366 106.772204,13.8663366 C106.818224,13.8663366 107.370456,13.8207921 108.198803,13.8207921 C108.474919,13.729703 108.566958,13.4108911 108.912103,13.4108911 C109.234238,13.4108911 109.671422,13.8891089 109.671422,14.1623762 C109.671422,14.7089109 108.474919,14.3673267 108.4289,14.549505 C106.104924,14.549505 106.611137,14.4128713 105.943856,14.4128713 C105.805798,14.4128713 105.66774,14.549505 105.529682,14.6405941 C104.494248,14.6405941 103.734929,14.8455446 102.97561,14.8455446 C102.883571,14.8455446 102.745513,14.8455446 102.607455,14.8227723 C102.423378,14.9594059 102.377358,15.209901 102.377358,15.3920792 C102.377358,15.6653465 102.400368,15.9158416 102.400368,16.1891089 Z M108.981132,5.23564356 C109.257248,5.66831683 109.579383,5.71386139 110.154625,5.71386139 C110.49977,5.75940594 110.821905,5.64554455 111.328118,5.64554455 C111.719282,5.64554455 111.88035,4.41584158 111.88035,3.93762376 C111.765301,3.93762376 112.202485,2.70792079 111.397147,2.84455446 L110.154625,2.84455446 C109.671422,3.04950495 109.395306,2.98118812 109.188219,3.45940594 C109.11919,3.64158416 109.027151,3.89207921 108.981132,3.93762376 L108.981132,4.00594059 C108.981132,4.07425743 109.050161,4.55247525 109.050161,4.62079208 C109.050161,4.68910891 108.981132,5.16732673 108.981132,5.23564356 Z M104.701335,4.00594059 C104.701335,4.75742574 104.747354,4.84851485 104.747354,5.0990099 L104.747354,5.3039604 C104.747354,5.48613861 104.747354,5.66831683 104.885412,5.71386139 C105.828808,5.71386139 106.081914,5.75940594 106.772204,5.64554455 C107.07133,5.64554455 107.232398,4.34752475 107.232398,4.00594059 C107.232398,3.07227723 107.301427,2.95841584 106.910262,2.84455446 C106.772204,2.84455446 105.989876,2.91287129 105.851818,2.91287129 C105.460653,3.16336634 104.908422,2.82178218 104.701335,3.25445545 L104.701335,4.00594059 Z M100.467556,5.57722772 C100.467556,5.85049505 100.950759,5.91881188 101.226875,5.91881188 C101.456972,5.91881188 102.28532,5.75940594 102.400368,5.71386139 C102.630465,5.12178218 102.745513,4.43861386 102.745513,3.77821782 C102.745513,3.48217822 102.676484,3.18613861 102.331339,3.18613861 C101.111827,3.18613861 100.536585,3.34554455 100.536585,4.25643564 L100.536585,4.48415842 C100.536585,4.55247525 100.467556,5.37227723 100.467556,5.44059406 L100.467556,5.57722772 Z M108.912103,17.6465347 C108.912103,17.8059406 110.154625,18.1475248 110.154625,18.1930693 L110.706857,18.1930693 C110.706857,17.9653465 110.637828,17.4188119 110.361712,17.4188119 L109.11919,17.4188119 C108.981132,17.4188119 108.912103,17.5554455 108.912103,17.6465347 Z M126.100322,21.7455446 C126.376438,21.5633663 127.526921,20.629703 127.803037,20.4475248 C128.194202,20.1742574 128.861482,19.9009901 129.137598,19.4910891 C129.505752,19.4910891 129.781868,18.8762376 129.965946,18.5346535 C130.426139,17.6693069 130.794294,17.350495 130.794294,17.2138614 C131.162448,16.7584158 131.208468,16.3940594 131.576622,15.9386139 L131.576622,15.8930693 C131.576622,15.619802 132.174873,14.8683168 132.174873,14.4356436 C132.174873,14.0712871 132.128854,14.0257426 131.760699,14.0257426 C130.656236,14.0485149 129.505752,14.0257426 128.355269,14.2079208 C127.710999,14.3217822 127.388863,13.6613861 127.250805,13.3881188 L127.250805,13.2514851 C127.250805,13.2514851 127.61896,13.1148515 127.757018,13.1148515 C128.171192,13.0920792 128.28624,13.2059406 128.493327,13.2059406 C128.585366,13.2059406 128.769443,13.1148515 128.861482,13.1148515 C130.080994,12.8643564 132.128854,13.3653465 132.128854,12.4544554 L132.128854,12.2039604 C132.128854,11.7712871 132.197883,10.7465347 131.898757,10.4277228 C129.735849,10.4277228 129.574781,10.5643564 128.723424,10.5643564 C128.148182,10.5643564 127.480902,10.7465347 127.250805,10.7009901 C126.95168,10.7009901 126.652554,10.9514851 126.652554,13.0693069 C126.399448,13.5247525 126.21537,14.6178218 126.100322,15.1643564 C126.008283,15.5970297 125.801197,15.8930693 125.59411,16.2574257 C125.294984,16.7811881 125.179936,17.7148515 124.719742,17.9881188 C124.305568,18.8534653 123.707317,19.650495 122.971008,20.2425743 L122.280718,20.7891089 C122.004602,20.9940594 121.590428,21.4722772 121.245283,21.4722772 C121.245283,21.3356436 121.45237,21.1990099 121.590428,21.1306931 C121.843534,20.880198 122.188679,20.3564356 122.418776,20.2425743 L122.487805,20.2425743 C122.602853,19.5594059 123.339162,19.2178218 123.385182,18.739604 C124.006443,18.1930693 124.305568,17.3049505 124.627704,16.6217822 C124.627704,16.280198 125.041878,15.9841584 125.041878,15.6653465 C125.179936,15.0277228 125.54809,14.4356436 125.54809,13.7524752 C125.54809,13.7524752 125.433042,11.5207921 125.686148,11.4752475 C125.686148,10.0178218 125.54809,8.60594059 125.456052,7.14851485 C125.456052,6.64752475 125.317994,6.1009901 125.317994,5.57722772 C125.317994,5.03069307 124.489646,4.87128713 124.489646,4.55247525 C124.489646,4.21089109 125.271974,4.14257426 125.456052,4.07425743 C125.686148,4.00594059 125.732168,3.86930693 125.962264,3.86930693 C126.26139,3.84653465 126.767602,4.68910891 127.250805,4.68910891 C128.30925,4.68910891 129.252646,4.11980198 130.3341,3.86930693 C130.932352,3.73267327 131.622642,3.57326733 132.266912,3.39108911 C132.727105,3.25445545 133.440405,2.77623762 134.107685,2.77623762 C134.199724,2.77623762 134.337782,2.70792079 134.337782,2.70792079 C134.843994,2.18415842 135.442246,2.57128713 135.442246,1.54653465 C135.8104,1.54653465 136.270594,1.2049505 136.753797,1.2049505 C137.720202,1.2049505 137.536125,2.04752475 137.996318,2.22970297 C138.088357,2.68514851 138.617579,2.77623762 138.617579,3.25445545 C138.617579,3.5049505 138.433502,3.52772277 138.272434,3.52772277 L137.996318,3.52772277 C137.651173,3.52772277 136.132536,3.73267327 135.85642,3.73267327 C134.913023,3.73267327 134.544869,4.21089109 134.337782,4.14257426 C134.153705,4.11980198 133.969627,4.11980198 133.80856,4.11980198 C133.141279,4.11980198 132.497009,4.23366337 131.852738,4.34752475 C131.599632,4.46138614 131.208468,4.48415842 130.748274,4.48415842 C129.781868,4.87128713 128.355269,4.75742574 127.757018,5.0990099 C127.204786,5.23564356 127.112747,5.50891089 127.112747,6.05544554 C127.112747,6.3970297 127.112747,6.6019802 127.204786,6.96633663 C127.204786,7.14851485 127.664979,7.1029703 127.757018,7.14851485 C127.803037,7.14851485 128.447308,7.01188119 128.493327,7.01188119 L129.551772,7.01188119 C129.781868,7.1029703 130.472158,6.73861386 130.932352,6.73861386 C131.02439,6.73861386 131.300506,6.82970297 131.346526,6.82970297 C131.71468,6.85247525 132.082835,6.67029703 132.450989,6.67029703 C132.681086,6.67029703 132.819144,6.73861386 133.003221,6.73861386 C133.141279,6.73861386 133.463415,6.3970297 135.511275,6.3970297 L136.201565,6.3970297 C136.50069,6.14653465 137.029913,5.16732673 137.306029,5.23564356 C137.973309,5.55445545 138.410492,6.05544554 138.962724,6.6019802 C139.23884,6.87524752 139.169811,7.33069307 139.169811,7.64950495 C139.169811,7.94554455 138.54855,7.74059406 138.54855,8.37821782 C138.502531,8.51485149 138.617579,8.97029703 138.617579,9.15247525 C138.617579,9.53960396 138.57156,10.0178218 138.272434,10.0178218 C137.85826,10.0178218 137.513116,9.97227723 137.098942,9.97227723 C135.764381,9.97227723 134.659917,10.2455446 133.693511,10.2455446 C133.325357,10.2455446 132.911183,10.2683168 132.819144,10.4277228 L132.819144,10.7009901 L132.957202,10.6554455 C133.003221,10.6554455 133.578463,11.2475248 134.245743,11.2475248 C134.544869,11.3386139 134.751956,11.3386139 134.751956,11.6574257 C134.751956,11.9306931 134.613898,12.0217822 134.613898,12.2039604 C134.613898,12.5227723 134.820985,12.7049505 135.16613,12.7049505 C135.373217,12.7049505 135.580304,12.6594059 135.85642,12.6594059 C135.902439,12.6138614 135.994478,12.6821782 136.063507,12.7049505 C136.201565,12.7049505 136.54671,12.5683168 136.684768,12.5683168 C137.536125,12.5910891 138.479521,12.2950495 139.376898,12.2950495 C139.445927,12.2039604 139.653014,12.0217822 139.722043,11.9306931 C139.95214,11.7257426 140.090198,11.1564356 140.573401,11.2475248 C141.033594,11.9762376 142,12.4316832 142,13.1148515 C142,13.3881188 141.654855,13.6613861 141.447768,13.6158416 C141.263691,13.6158416 139.722043,13.5247525 139.514956,13.5247525 C137.973309,13.6386139 139.906121,13.6613861 136.270594,13.6613861 C136.201565,13.6613861 135.649333,13.7524752 135.580304,13.7524752 C134.936033,13.7524752 134.291763,13.6386139 134.061666,14.0257426 C134.061666,14.3673267 134.015647,15.6653465 134.682927,15.6653465 C134.959043,15.6881188 136.270594,15.5287129 136.408652,15.5287129 C137.467096,15.5287129 137.674183,14.2990099 138.065347,14.2990099 C138.019328,14.2990099 139.100782,15.2782178 139.100782,15.9386139 C139.100782,16.1207921 139.100782,16.2574257 139.031753,16.4851485 C139.077773,16.9405941 137.927289,17.5326733 137.927289,18.1247525 C137.536125,18.8762376 136.960884,19.6277228 136.477681,20.3792079 C136.063507,20.6524752 136.017487,21.2217822 135.580304,21.5405941 C135.350207,21.8594059 134.751956,21.950495 134.245743,21.950495 C134.061666,22.0871287 133.78555,22.2920792 133.509434,22.2920792 C133.003221,22.2920792 133.049241,21.1534653 132.727105,20.5841584 C132.727105,20.5158416 132.589047,20.3108911 132.589047,20.2425743 C132.312931,19.9237624 133.187299,20.0376238 133.509434,20.0376238 C133.555453,20.0376238 133.831569,20.1059406 133.923608,20.1059406 C134.130695,20.1059406 134.47584,20.0831683 134.682927,20.1742574 C134.751956,20.1742574 135.511275,18.739604 135.580304,18.6029703 C135.994478,17.8970297 136.408652,17.2138614 136.615739,16.3940594 C136.592729,16.3485149 136.293603,16.2118812 136.132536,16.2118812 C135.396226,16.1663366 135.373217,16.2574257 134.107685,16.2574257 C133.371376,16.3485149 133.141279,17.1683168 132.727105,17.6237624 C132.681086,17.7148515 132.036815,18.329703 131.990796,18.3980198 C131.668661,18.6940594 131.484584,19.0356436 130.794294,19.4910891 C130.011965,20.1970297 129.66682,20.470297 129.137598,20.7891089 C128.493327,21.1990099 127.803037,21.5405941 127.204786,21.8821782 C127.112747,21.8821782 126.836631,22.1554455 126.790612,22.1554455 C126.284399,22.4287129 125.732168,22.4970297 125.271974,22.770297 C125.156926,22.9980198 124.144501,23.2257426 124.029452,23.3851485 C123.914404,23.4079208 123.316153,23.7267327 123.247124,23.6584158 C123.247124,23.3168317 123.891394,23.339604 124.075472,23.0435644 C124.834791,22.4059406 125.087897,22.4970297 125.456052,22.2237624 C125.663139,22.2237624 125.801197,21.7455446 126.100322,21.7455446 Z M126.974689,8.92475248 C126.974689,9.42574257 126.95168,9.88118812 127.480902,9.88118812 C127.780028,9.88118812 128.171192,9.74455446 128.447308,9.74455446 C129.459733,9.74455446 129.965946,9.67623762 130.748274,9.56237624 C131.484584,9.56237624 132.036815,9.42574257 132.727105,9.42574257 C133.233318,9.42574257 133.394386,9.28910891 133.923608,9.28910891 C134.751956,9.17524752 136.408652,9.44851485 136.408652,8.51485149 C136.270594,8.46930693 136.477681,7.37623762 136.201565,7.37623762 C134.337782,7.37623762 132.128854,7.6039604 131.02439,7.6950495 C129.781868,7.83168317 128.493327,7.83168317 127.250805,8.1049505 C126.974689,8.28712871 126.974689,8.65148515 126.974689,8.92475248 Z" id="合作买房" fill="#9F9FA9"></path>
                            <path d="M49.3927971,27.6437768 L49.3927971,28.1587983 L52.6721966,28.1587983 L52.6721966,28.7424893 L49.749055,28.7424893 L49.749055,29.2403433 L52.6721966,29.2403433 L52.6721966,29.8412017 L49,29.8412017 L49,30.3648069 L57.0203696,30.3648069 L57.0203696,29.8412017 L53.348173,29.8412017 L53.348173,29.2403433 L56.2895842,29.2403433 L56.2895842,28.7424893 L53.348173,28.7424893 L53.348173,28.1587983 L56.6458421,28.1587983 L56.6458421,27.6437768 L53.348173,27.6437768 L53.348173,27.0858369 L52.6721966,27.0858369 L52.6721966,27.6437768 L49.3927971,27.6437768 Z M55.0746535,34.9227468 L54.0606888,34.9227468 L53.9053969,34.3733906 L54.8736875,34.3991416 C55.1568669,34.3991416 55.3030239,34.2618026 55.3030239,34.0042918 L55.3030239,33.583691 L50.7356153,33.583691 L50.7356153,34.9742489 L50.0870433,34.9742489 L50.0870433,30.8798283 L55.951596,30.8798283 L55.951596,34.1330472 C55.951596,34.6566524 55.6592818,34.9227468 55.0746535,34.9227468 Z M50.7356153,33.111588 L55.3030239,33.111588 L55.3030239,32.4935622 L50.7356153,32.4935622 L50.7356153,33.111588 Z M50.7356153,32.0128755 L55.3030239,32.0128755 L55.3030239,31.3862661 L50.7356153,31.3862661 L50.7356153,32.0128755 Z M60.6103528,28.6652361 C60.2266905,29.2746781 59.75168,29.7811159 59.1670517,30.193133 L58.7285804,29.6781116 C59.651197,29.0257511 60.2723646,28.1416309 60.5920832,27.0257511 L61.2771945,27.1459227 C61.1767115,27.472103 61.0579588,27.7725322 60.9300714,28.0643777 L66.6027929,28.0643777 L66.6027929,28.6652361 L63.7344603,28.6652361 L63.7344603,30.0386266 L66.2830743,30.0386266 L66.2830743,30.6309013 L63.7344603,30.6309013 L63.7344603,32.4849785 L66.8951071,32.4849785 L66.8951071,33.0858369 L63.7344603,33.0858369 L63.7344603,35 L63.0676186,35 L63.0676186,33.0858369 L58.8473331,33.0858369 L58.8473331,32.4849785 L60.3545779,32.4849785 L60.3545779,30.0386266 L63.0676186,30.0386266 L63.0676186,28.6652361 L60.6103528,28.6652361 Z M61.0122848,32.4849785 L63.0676186,32.4849785 L63.0676186,30.6309013 L61.0122848,30.6309013 L61.0122848,32.4849785 Z M73.0702436,27.1201717 L72.4034019,27.1201717 C72.4034019,27.4463519 72.3942671,27.9012876 72.3851323,28.4849785 C72.3029189,30.9570815 71.0057749,32.9227468 68.4937001,34.3733906 L68.8956321,34.9227468 C70.9235615,33.695279 72.2207056,32.1502146 72.7687946,30.27897 C73.4173666,32.2188841 74.6779714,33.7639485 76.5414742,34.9141631 L76.9708106,34.3733906 C74.8423981,33.1459227 73.5178496,31.360515 73.0062999,29.0257511 C73.0428391,28.4935622 73.0702436,27.8583691 73.0702436,27.1201717 Z M82.3694876,27.0944206 L82.8444981,27.0944206 C84.0046199,28.3562232 85.347438,29.3519313 86.8638177,30.0729614 L86.5075598,30.6652361 C84.9820454,29.8927039 83.6849013,28.888412 82.6069929,27.6523605 C81.6112978,28.8197425 80.2958841,29.8240343 78.6698866,30.6824034 L78.3227635,30.0901288 C79.948761,29.2832618 81.2915792,28.2875536 82.3694876,27.0944206 Z M85.4935951,31.5064378 L85.4935951,34.9656652 L84.8541579,34.9656652 L84.8541579,34.4506438 L80.3598278,34.4506438 L80.3598278,34.9656652 L79.7203906,34.9656652 L79.7203906,31.5064378 L85.4935951,31.5064378 Z M80.3598278,33.8583691 L84.8541579,33.8583691 L84.8541579,32.0901288 L80.3598278,32.0901288 L80.3598278,33.8583691 Z M80.2319404,29.8240343 L84.9820454,29.8240343 L84.9820454,30.416309 L80.2319404,30.416309 L80.2319404,29.8240343 Z M92.3264385,28.9227468 C91.9062369,29.7553648 91.4220916,30.4763948 90.8740025,31.0944206 L90.4081268,30.5708155 C91.2119908,29.6781116 91.8788324,28.5021459 92.3903822,27.0515021 L93.048089,27.1888412 C92.901932,27.583691 92.7557749,27.9613734 92.6096178,28.3133047 L96.5558589,28.3133047 L96.5558589,28.9227468 L93.4865603,28.9227468 L93.4865603,30.3390558 L96.1539269,30.3390558 L96.1539269,30.9399142 L93.4865603,30.9399142 L93.4865603,32.3905579 L96.2087358,32.3905579 L96.2087358,32.9828326 L93.4865603,32.9828326 L93.4865603,34.9828326 L92.8197186,34.9828326 L92.8197186,28.9227468 L92.3264385,28.9227468 Z M89.4032969,30.1587983 C89.1109828,30.5193133 88.7912642,30.8626609 88.4441411,31.1888412 L88.2249055,30.5364807 C89.2114658,29.5321888 89.9331163,28.3819742 90.3807224,27.0772532 L91.00189,27.3519313 C90.7552499,28.0214592 90.4446661,28.6480687 90.0792734,29.2317597 L90.0792734,34.9828326 L89.4032969,34.9828326 L89.4032969,30.1587983 Z M99.1775515,29.832618 C99.8717976,30.0987124 100.511235,30.416309 101.086728,30.7854077 L100.74874,31.2832618 C100.136707,30.8540773 99.5064049,30.5107296 98.8578328,30.2703863 L99.1775515,29.832618 Z M100.017955,28.6309013 C100.712201,28.8969957 101.333368,29.2145923 101.899727,29.5922747 L101.561739,30.0815451 C100.958841,29.6523605 100.346808,29.3090129 99.7073709,29.0686695 L100.017955,28.6309013 Z M102.539164,28.6309013 L103.187736,28.6309013 L103.187736,30.4334764 C103.169467,30.9055794 103.105523,31.3347639 103.00504,31.7296137 L106.403192,31.7296137 L106.403192,32.3304721 L102.785804,32.3304721 C102.721861,32.4678112 102.657917,32.6051502 102.584838,32.7253219 C103.909387,33.2832618 105.115183,33.8841202 106.202226,34.527897 L105.75462,34.9914163 C104.621903,34.3133047 103.461781,33.7124464 102.255985,33.1888412 C102.201176,33.248927 102.155502,33.3090129 102.109828,33.360515 C101.442986,34.0386266 100.355943,34.5708155 98.848698,34.9484979 L98.4741705,34.3991416 C99.9905502,34.0300429 101.041054,33.5407725 101.643952,32.9313305 C101.808379,32.7424893 101.945401,32.5450644 102.055019,32.3304721 L98.4284964,32.3304721 L98.4284964,31.7296137 L102.319929,31.7296137 C102.447816,31.3347639 102.520895,30.8969957 102.539164,30.4334764 L102.539164,28.6309013 Z M98.7756195,27.6094421 L105.73635,27.6094421 L105.73635,27.9957082 C105.599328,28.5107296 105.416632,29.0171674 105.197396,29.5236052 L104.576228,29.360515 C104.76806,29.0085837 104.923352,28.6137339 105.051239,28.1845494 L98.7756195,28.1845494 L98.7756195,27.6094421 Z M111.536959,31.5751073 L110.102793,31.5751073 L110.102793,30.9914163 L112.697081,30.9914163 C112.605733,30.751073 112.514385,30.527897 112.413902,30.3304721 L113.108148,30.2274678 C113.199496,30.4592275 113.290844,30.7167382 113.382192,30.9914163 L116.250525,30.9914163 L116.250525,31.5751073 L112.212936,31.5751073 C112.194666,31.8669528 112.158127,32.1416309 112.094183,32.3905579 L115.528874,32.3905579 C115.492335,33.5407725 115.428391,34.2188841 115.346178,34.4248927 C115.2731,34.6223176 115.117808,34.751073 114.880302,34.8197425 C114.642797,34.888412 114.140382,34.9227468 113.373058,34.9227468 L113.190361,34.9227468 L113.0168,34.3648069 C113.199496,34.3733906 113.373058,34.3819742 113.537484,34.3819742 C114.030764,34.3819742 114.350483,34.3562232 114.49664,34.3133047 C114.633662,34.2618026 114.72501,34.1759657 114.76155,34.0643777 C114.788954,33.944206 114.825493,33.5665236 114.862033,32.9484979 L111.911487,32.9484979 C111.546094,33.8240343 110.879252,34.5021459 109.910962,34.9828326 L109.554704,34.4420601 C110.797039,33.8669528 111.454746,32.9141631 111.536959,31.5751073 Z M115.062999,28.3476395 L109.664322,28.3476395 L109.664322,29.4206009 L115.062999,29.4206009 L115.062999,28.3476395 Z M109.664322,29.9871245 L109.664322,30.7424893 C109.655187,32.3905579 109.253255,33.8154506 108.449391,35 L107.965246,34.5879828 C108.650357,33.5922747 108.99748,32.3133047 109.006615,30.7424893 L109.006615,27.7639485 L112.057644,27.7639485 C111.966296,27.5236052 111.874948,27.3090129 111.76533,27.1030043 L112.477845,27 C112.569194,27.223176 112.669677,27.4806867 112.761025,27.7639485 L115.711571,27.7639485 L115.711571,29.9871245 L109.664322,29.9871245 Z M118.388072,27.4892704 L125.769005,27.4892704 L125.769005,28.0901288 L122.370853,28.0901288 L122.370853,31.3347639 L126.116128,31.3347639 L126.116128,31.9270386 L122.370853,31.9270386 L122.370853,34.9656652 L121.694876,34.9656652 L121.694876,31.9270386 L118.02268,31.9270386 L118.02268,31.3347639 L121.694876,31.3347639 L121.694876,28.0901288 L118.388072,28.0901288 L118.388072,27.4892704 Z M119.50252,28.639485 C119.849643,29.2403433 120.178496,29.8927039 120.48908,30.6051502 L119.877047,30.888412 C119.566464,30.1502146 119.23761,29.4978541 118.890487,28.9227468 L119.50252,28.639485 Z M124.681961,28.5965665 L125.284859,28.8626609 C125.010815,29.5407725 124.645422,30.2017167 124.197816,30.8540773 L123.613188,30.5708155 C124.060794,29.9012876 124.417052,29.248927 124.681961,28.5965665 Z M134.986035,31.4034335 L134.986035,34.9828326 L134.319194,34.9828326 L134.319194,34.5536481 L129.550819,34.5536481 L129.550819,34.9828326 L128.883977,34.9828326 L128.883977,31.4034335 L134.986035,31.4034335 Z M129.550819,33.9613734 L134.319194,33.9613734 L134.319194,31.9957082 L129.550819,31.9957082 L129.550819,33.9613734 Z M128.235405,30.5193133 C130.610458,30.4334764 132.75714,30.3133047 134.684586,30.1502146 C134.903822,30.4763948 135.132192,30.8111588 135.360563,31.1716738 L136,30.8798283 C135.324024,29.8412017 134.593238,28.888412 133.807644,28.0300429 L133.213881,28.2961373 C133.579273,28.6909871 133.935531,29.1287554 134.282654,29.5922747 C132.711466,29.7296137 131.048929,29.8412017 129.295044,29.9098712 C130.117178,29.2746781 130.948446,28.3991416 131.77058,27.3004292 L131.094603,27.0858369 C129.907077,28.7253219 128.911382,29.6781116 128.107518,29.9356223 L128.235405,30.5193133 Z" id="青年人合作买房平台" fill="#9F9FA9"></path>
                            <g id="Page-1" stroke-width="1" fill="none">
                                <g id="Group-10">
                                    <path d="M34.209445,11.0556158 L33.3307478,11.0556158 L33.3307478,12.6603582 L34.209445,12.6603582 C35.4396864,12.6603582 36.4406078,13.6442258 36.4406078,14.8535061 L36.4406078,33.2242224 C36.4406078,34.4335563 35.4396864,35.4173703 34.209445,35.4173703 L16.4811152,35.4173703 C15.2508194,35.4173703 14.2499524,34.4335563 14.2499524,33.2242224 L14.2499524,32.6772727 L12.6173943,32.6772727 L12.6173943,33.2242224 C12.6173943,35.3184112 14.3506268,37.0221127 16.4811152,37.0221127 L34.209445,37.0221127 C36.3398789,37.0221127 38.0731659,35.3184112 38.0731659,33.2242224 L38.0731659,14.8535061 C38.0731659,12.7593708 36.3398789,11.0556158 34.209445,11.0556158" id="Fill-1" fill="#DBDBE0"></path>
                                    <g id="Group-5">
                                        <mask id="mask-4" fill="white">
                                            <use xlink:href="#path-3"></use>
                                        </mask>
                                        <g id="Clip-4"></g>
                                        <path d="M30.9833849,5.73509784 L30.9833849,24.6838958 C30.9833849,27.8449173 28.3764617,30.4074769 25.1605942,30.4074769 L5.82277981,30.4074769 C2.60696679,30.4074769 -1.08837209e-05,27.8449173 -1.08837209e-05,24.6838958 L-1.08837209e-05,5.73509784 C-1.08837209e-05,2.57402282 2.60696679,0.0115167011 5.82277981,0.0115167011 L25.1605942,0.0115167011 C28.3764617,0.0115167011 30.9833849,2.57402282 30.9833849,5.73509784" id="Fill-3" fill="#9F9FA9" mask="url(#mask-4)"></path>
                                    </g>
                                    <path d="M5.82280702,2.1511732 C3.81236609,2.1511732 2.17676051,3.7589111 2.17676051,5.73509784 L2.17676051,24.6838958 C2.17676051,26.6600826 3.81236609,28.2678204 5.82280702,28.2678204 L25.1606214,28.2678204 C27.1710624,28.2678204 28.806668,26.6600826 28.806668,24.6838958 L28.806668,5.73509784 C28.806668,3.7589111 27.1710624,2.1511732 25.1606214,2.1511732 L5.82280702,2.1511732 Z M25.1606214,30.4074769 L5.82280702,30.4074769 C2.61210935,30.4074769 1.63255814e-05,27.8398891 1.63255814e-05,24.6838958 L1.63255814e-05,5.73509784 C1.63255814e-05,2.5791045 2.61210935,0.0115167011 5.82280702,0.0115167011 L25.1606214,0.0115167011 C28.3713191,0.0115167011 30.9834121,2.5791045 30.9834121,5.73509784 L30.9834121,24.6838958 C30.9834121,27.8398891 28.3713191,30.4074769 25.1606214,30.4074769 L25.1606214,30.4074769 Z" id="Fill-6" fill="#DBDBE0"></path>
                                    <path d="M16.9805855,18.6852725 L15.5196636,21.8736282 C15.1068441,22.7825542 14.7354915,23.2365894 14.4054971,23.2365894 C14.2402822,23.2365894 14.0836111,23.1556034 13.9349939,22.9932034 C13.6873892,22.7338771 13.2251032,21.8576877 12.5484622,20.3646889 L10.9389776,16.835486 C10.7242962,16.3487676 10.4932892,16.1053817 10.2456846,16.1053817 C9.98148223,16.1053817 9.81626735,16.5921536 9.75052967,17.5656973 L9.75052967,19.3910917 C9.75052967,20.3000178 9.8000506,20.8636033 9.89903805,21.0825972 C9.99807991,21.301698 10.3114767,21.541286 10.8399357,21.8006124 C11.1204092,21.9466439 11.260918,22.1820597 11.260918,22.5064851 C11.260918,23.3989893 10.0971762,23.8450542 7.76963805,23.8450542 C5.82166967,23.8450542 4.84795758,23.4153577 4.84795758,22.5551088 C4.84795758,22.3444061 4.89747851,22.186232 4.99646595,22.080533 C5.09556223,21.9751549 5.35127526,21.824951 5.76409479,21.6302422 C6.02791619,21.5005791 6.20972874,21.3343812 6.30882502,21.1313278 C6.40786688,20.9285954 6.49025665,20.5270353 6.55637526,19.9265408 C6.7545134,18.3042532 6.85350084,16.0243422 6.85350084,13.0873962 C6.85350084,11.8057955 6.7545134,10.9296061 6.55637526,10.4587747 C6.45738781,10.2154423 6.19313107,9.99639493 5.76409479,9.8016327 C5.20265805,9.54230633 4.92218456,9.18519766 4.92218456,8.73078811 C4.92218456,8.29263995 5.177952,7.93595921 5.6898134,7.65983654 C6.36645433,7.3031558 7.48067526,7.124441 9.03242177,7.124441 C10.0724157,7.124441 10.7985232,7.20580143 11.2113427,7.36777343 C11.5247394,7.49786455 11.8632776,7.88728203 12.2265762,8.53607937 L14.7273832,13.0873962 C14.9912046,13.5741681 15.1811799,13.8745758 15.2968739,13.9879241 C15.4121325,14.1015934 15.5606953,14.1582943 15.7425622,14.1582943 C16.0230357,14.1582943 16.3120529,13.8745758 16.6091785,13.3064435 L18.3175962,10.0450721 C18.4495613,9.76937738 18.5899613,9.49368264 18.7385785,9.21750648 C19.1676148,8.34137063 19.6175478,7.77355929 20.0879967,7.51385848 C20.5584455,7.25447862 21.3879483,7.124441 22.5764506,7.124441 C24.8706301,7.124441 26.0181553,7.63549795 26.0181553,8.65777234 C26.0181553,9.03119589 25.8076641,9.36776385 25.3867906,9.66779719 C24.9658083,9.96825845 24.713959,10.3857589 24.6315692,10.9212615 C24.4497567,11.9921595 24.3592041,13.3227584 24.3592041,14.9127907 C24.3592041,17.0385929 24.458246,18.8153636 24.6563297,20.2429425 C24.7058506,20.6164195 24.7800776,20.8677756 24.8791739,20.9974923 C24.9782157,21.1274765 25.2339287,21.3302089 25.6467483,21.6059571 C25.9272218,21.7846185 26.0676218,22.0360281 26.0676218,22.3604 C26.0676218,22.9122174 25.6877255,23.3096051 24.9286948,23.5529911 C24.3344436,23.7477533 23.2612543,23.8450542 21.7097799,23.8450542 C18.9695311,23.8450542 17.5995971,23.3910191 17.5995971,22.482093 C17.5995971,22.1900834 17.8967227,21.8006124 18.4909739,21.313894 C18.8538371,21.0217774 19.0357041,19.8942319 19.0357041,17.9308296 C19.0357041,16.8925613 18.8785976,16.3731062 18.5652008,16.3731062 C18.3505194,16.3731062 18.1443273,16.5190843 17.9461892,16.8111474 C17.7481055,17.1032105 17.4262194,17.7280437 16.9805855,18.6852725" id="Fill-8" fill="#DBDBE0"></path>
                                </g>
                                <g id="Group-20" transform="translate(22.674419, 24.411654)">
                                    <g id="Group-13" transform="translate(5.815321, 0.277728)">
                                        <mask id="mask-6" fill="white">
                                            <use xlink:href="#path-5"></use>
                                        </mask>
                                        <g id="Clip-12"></g>
                                        <polygon id="Fill-11" fill="#9F9FA9" mask="url(#mask-6)" points="9.74913037 8.85999678 0.049174145 -0.824806307 9.74913037 -0.824806307"></polygon>
                                    </g>
                                    <g id="Group-16">
                                        <mask id="mask-8" fill="white">
                                            <use xlink:href="#path-7"></use>
                                        </mask>
                                        <g id="Clip-15"></g>
                                        <polygon id="Fill-14" fill="#9F9FA9" mask="url(#mask-8)" points="8.10992462 13.8316416 -0.714425581 5.02106921 -0.714425581 -0.547089893 5.86451696 -0.547089893 15.5644732 9.1377132 15.5644732 13.8316416"></polygon>
                                    </g>
                                    <g id="Group-19" transform="translate(0.266758, 4.999095)">
                                        <mask id="mask-10" fill="white">
                                            <use xlink:href="#path-9"></use>
                                        </mask>
                                        <g id="Clip-18"></g>
                                        <polygon id="Fill-17" fill="#9F9FA9" mask="url(#mask-10)" points="-0.981204788 0.0219682471 7.84314542 8.83254064 -0.981204788 8.83254064"></polygon>
                                    </g>
                                </g>
                                <path d="M30.9248497,36.2645345 C32.7814225,37.1877564 35.496632,37.5826937 37.3866323,36.3856732 L37.4074842,36.3724648 L37.4297335,36.361677 C37.9884358,36.0914568 38.1110214,35.9299561 38.1342917,35.857757 C38.1531552,35.7992926 38.1124724,35.7043077 38.072972,35.6318981 C37.9701635,35.4689766 37.772339,35.2855321 37.5228147,35.0543583 C37.4701475,35.0054713 37.4153306,34.9546899 37.358579,34.9014878 L37.3534735,34.8965938 C37.0292477,34.5822753 35.8965803,33.3895174 34.9360487,31.2361224 C34.1370119,29.4447227 33.4393864,28.4463549 32.2726465,27.4250434 C30.9181319,26.3376371 30.3058488,26.0724686 29.76558,25.8384532 C29.6996922,25.8099314 29.6347718,25.781778 29.5697439,25.7528878 C28.4976438,25.2969076 27.3120942,25.1501414 26.2312342,25.3390062 C25.298111,25.5021908 24.4897231,25.9145464 24.0688154,26.4420942 C23.4700752,27.1925013 23.3716198,28.2749084 23.7916676,29.4899786 C24.2554078,30.8318182 25.3279378,32.2317538 26.8115945,33.4320895 L26.8609297,33.4736619 C27.1203963,33.688312 28.8947975,35.1320302 30.9248497,36.2645345 M34.4877862,37.9736842 C33.1585842,37.9737368 31.7897742,37.6410528 30.5257612,37.0104161 L30.5082951,37.001207 C29.342845,36.3517838 28.2537087,35.5953776 27.5452272,35.0751971 C27.5342639,35.0671457 26.5687342,34.3515751 26.2659515,34.0787237 L26.2638556,34.0811444 C24.6355253,32.7637746 23.4989347,31.2694856 22.9771531,29.7599358 C22.4612295,28.2673307 22.6082677,26.904968 23.3912356,25.9237028 C24.480372,24.5587616 27.2186368,23.8332979 29.9160039,24.9821681 L29.9225605,24.9850097 C29.9858686,25.0132158 30.0491767,25.0406325 30.1133985,25.0684175 C30.704776,25.3245874 31.3751006,25.6149097 32.8250073,26.7797248 L32.838604,26.791144 C34.112828,27.9048619 34.8679038,28.9798491 35.7240146,30.8991233 C36.4376552,32.4989219 37.3442299,33.7020993 37.9558144,34.2957419 C38.01047,34.3469443 38.0632447,34.3958313 38.1139772,34.4428764 C38.4147715,34.7216743 38.652365,34.9419024 38.8141824,35.2048081 L38.8233185,35.2204898 C39.0016346,35.5405442 39.044467,35.8320243 38.9541266,36.1116115 C38.8342281,36.4828683 38.4982866,36.7809789 37.8325838,37.1058746 C36.9499782,37.6580501 35.7803362,37.9661065 34.5356167,37.9736316 C34.519709,37.9736842 34.5037476,37.9736842 34.4877862,37.9736842" id="Fill-21" fill="#FFFFFF"></path>
                            </g>
                        </g>
                    </g>
                </g>
            </g>
        </g>
    </g>
</svg>