<?xml version="1.0" encoding="UTF-8"?>
<svg width="32px" height="32px" viewBox="0 0 32 32" version="1.1" xmlns="http://www.w3.org/2000/svg" xmlns:xlink="http://www.w3.org/1999/xlink">
    <!-- Generator: Sketch 46.2 (44496) - http://www.bohemiancoding.com/sketch -->
    <title>logo_weibo_c</title>
    <desc>Created with Sketch.</desc>
    <defs></defs>
    <g id="Symbols" stroke="none" stroke-width="1" fill="none" fill-rule="evenodd">
        <g id="logo_weibo_c">
            <g id="logo_weibo_n">
                <rect id="Rectangle-5-Copy" fill="#EA6161" opacity="0" x="0" y="0" width="32" height="32"></rect>
                <g id="weibo" transform="translate(1.600000, 4.000000)" fill-rule="nonzero">
                    <path d="M12.4127971,12.7625261 C11.2961429,12.4706687 10.1889219,12.5703866 9.09113409,13.0738408 C7.98980884,13.5724306 7.19270407,14.3276118 6.69981975,15.3369522 C6.20457713,16.3681819 6.16920266,17.3823865 6.59487549,18.3892948 C7.02054832,19.3913387 7.79878671,20.080852 8.92251578,20.4505381 C10.0922317,20.8372493 11.273739,20.7764456 12.459963,20.2535343 C13.6509036,19.7330552 14.4798454,18.9170704 14.9526842,17.8092281 C15.4267021,16.7257073 15.4160898,15.6908293 14.9173097,14.7070265 C14.4161714,13.7244397 13.5777964,13.0750568 12.4127971,12.7625261 L12.4127971,12.7625261 Z M10.7242556,18.0342015 C10.4946055,18.4068319 10.1426075,18.681795 9.7325912,18.8088399 C9.30927669,18.9584168 8.91897833,18.943824 8.55933787,18.7674934 C8.22151618,18.6189323 7.97031381,18.316236 7.880148,17.9490765 C7.78463692,17.57331 7.85656503,17.2024078 8.08531994,16.8315056 C8.30464167,16.4739802 8.62065363,16.2246853 9.0333558,16.0824048 C9.44841629,15.9425564 9.83163972,15.9474207 10.1889219,16.0994298 C10.5556372,16.2635996 10.7914671,16.5311356 10.8987696,16.9166307 C11.0001764,17.2960454 10.9459356,17.6693797 10.7242556,18.0342015 L10.7242556,18.0342015 Z M12.2088043,16.070244 C12.13182,16.2091782 12.0093207,16.3152481 11.8633136,16.3693979 C11.7159353,16.4312657 11.5514159,16.4338693 11.4022663,16.3766944 C11.0850752,16.2246853 11.0225803,15.9814707 11.1982735,15.6446186 C11.3539361,15.3574518 11.6871702,15.2271654 11.9883034,15.3357361 C12.1213527,15.3850361 12.224339,15.4957478 12.2665826,15.63489 C12.3121038,15.7815564 12.2908652,15.9415869 12.2088043,16.070244 L12.2088043,16.070244 Z" id="Shape" fill="#0A0707"></path>
                    <path d="M24.6459455,13.4915782 C24.3169508,12.9733369 23.8778139,12.5313895 23.3587403,12.196135 C22.8408533,11.8779277 22.2825294,11.6284542 21.6982576,11.4541886 C21.5730291,11.4115207 21.4766994,11.3807051 21.422514,11.3558155 C21.3549174,11.3236886 21.2911166,11.2843398 21.2322629,11.2384789 C21.1588115,11.1780328 21.1323208,11.114031 21.1588115,11.0393623 C21.1953839,10.936954 21.2200255,10.8307898 21.2322629,10.7229091 C21.7163194,9.50450509 21.7163194,8.56344204 21.2322629,7.89497916 C20.7385733,7.25140583 19.9137505,6.92902657 18.7662234,6.92902654 C17.6186962,6.92902651 16.2941633,7.2431093 14.7962369,7.86416348 L14.7047238,7.89497916 C14.6331614,7.92071254 14.559421,7.94014724 14.4843696,7.95305482 C14.4065615,7.97089319 14.3259246,7.97331059 14.2471578,7.96016613 C14.1789145,7.95308316 14.1194715,7.91122617 14.0906221,7.84994086 C14.0569067,7.78475387 14.0665397,7.67926948 14.1086839,7.53111725 C14.5867199,5.99863048 14.4831655,4.89282216 13.7811631,4.21724794 C12.9900557,3.43263369 11.6619104,3.39707715 9.80876842,4.10465225 C7.95562644,4.81222735 6.11934214,6.0661879 4.30232378,7.85231132 C2.92601365,9.20464495 1.86759143,10.570016 1.11622002,11.9436836 C0.374481574,13.3197216 0,14.6175352 0,15.8335688 C0,16.9761189 0.346786804,18.0309628 1.0451769,18.9992859 C1.743567,19.9676089 2.66833181,20.7628901 3.81104248,21.393426 C4.95856963,22.0227768 6.24818306,22.5158274 7.68831161,22.872578 C9.13084839,23.2269582 10.6046923,23.4 12.1279052,23.4 C13.6414851,23.4 15.096063,23.2364399 16.4868226,22.9093198 C17.8763781,22.5833849 19.0949484,22.143669 20.1268799,21.5901722 C21.1055709,21.0813845 22.0177662,20.4573293 22.8433766,19.7317505 C23.6176263,19.0372128 24.2052372,18.3142299 24.6001889,17.5580609 C24.999957,16.7983362 25.1998411,16.0599454 25.1998411,15.3428886 C25.2063386,14.6853014 25.0134918,14.0407409 24.6459455,13.4915782 Z M18.0943239,19.4710026 C16.520538,20.729704 14.5337386,21.4752061 12.1411505,21.7169905 C10.5673645,21.8675132 9.0923165,21.7549175 7.71480225,21.3839443 C6.33367563,21.0153416 5.20902678,20.4416961 4.35048862,19.6594522 C3.49195047,18.874838 3.01632272,17.9740724 2.9163807,16.9618963 C2.76827383,15.4163721 3.47870512,14.0166297 5.05128696,12.7650396 C6.62748115,11.5098938 8.61187229,10.7632065 11.0080728,10.5166812 C12.5770423,10.3708994 14.049682,10.4811246 15.434421,10.8520979 C16.8143435,11.2218859 17.9389924,11.8002722 18.7975305,12.5801456 C19.6572728,13.3635747 20.1329005,14.2631551 20.2292302,15.2777016 C20.3797453,16.8232257 19.669314,18.2217829 18.0943239,19.4710026 L18.0943239,19.4710026 Z" id="Shape" fill="#E80010"></path>
                    <path d="M28.4255602,10.0302947 C28.3436206,10.3117517 28.1516357,10.545663 27.8954112,10.6762199 C27.6438429,10.8137806 27.3479441,10.8378313 27.0784411,10.7426234 C26.8037727,10.6571922 26.5754658,10.4593814 26.4471994,10.1956999 C26.3123881,9.9375148 26.2860628,9.63398771 26.3743186,9.35539347 C26.6634908,8.47403761 26.7187391,7.54559564 26.5283087,6.57489686 C26.3466688,5.61930898 25.9099772,4.73439102 25.2670008,4.01896487 C24.6456589,3.29381492 23.8402167,2.76042315 22.9406929,2.47840314 C22.0611431,2.19280246 21.1248892,2.14416052 20.2217693,2.33714474 C19.9390722,2.40294589 19.6424871,2.34916735 19.3988166,2.18792213 C19.155146,2.02667691 18.9848811,1.77152467 18.926372,1.4799356 C18.8622294,1.19376112 18.9162689,0.893081972 19.07566,0.649287912 C19.2306189,0.400473579 19.4777058,0.227362771 19.7597991,0.169975198 C21.0346327,-0.108440042 22.3578673,-0.0439795638 23.6013221,0.357112391 C24.8660943,0.757700045 25.9983187,1.50984036 26.8727292,2.53031861 L26.8727292,2.53031861 C27.7721792,3.54086425 28.3859153,4.78446871 28.6477291,6.1269749 C28.9075138,7.48764345 28.8358085,8.79035986 28.4255602,10.0302947 L28.4255602,10.0302947 Z" id="Shape" fill="#F78200"></path>
                </g>
            </g>
            <path d="M24.1832864,10.6931682 C23.7112711,10.1823393 23.1357013,9.99863048 22.4613936,10.1349305 C22.2114837,10.1898554 21.9496372,10.1441969 21.7341046,10.0081122 C21.517352,9.88247321 21.369628,9.66741319 21.3319283,9.42261457 C21.2759299,9.17915838 21.3228705,8.92375504 21.4619734,8.71503947 C21.5907432,8.50325463 21.8063644,8.35672087 22.0531967,8.31325059 C22.6900002,8.17642724 23.3520801,8.20584505 23.9737694,8.39858629 C24.6029307,8.59313926 25.1664985,8.95243762 25.6041491,9.43802241 C26.0532861,9.93344351 26.3470916,10.5082742 26.4831573,11.1565884 C26.6144065,11.8084582 26.5806911,12.4283272 26.3759905,13.0221214 C26.296512,13.2575902 26.1248829,13.4521211 25.8991587,13.5625808 C25.6776531,13.6787444 25.4176193,13.7010423 25.1790429,13.6243308 C24.9404665,13.5476194 24.7439519,13.3785235 24.6348318,13.156051 C24.5175279,12.9389112 24.4928329,12.6847498 24.5661969,12.4496611 C24.786551,11.7871243 24.6589142,11.198071 24.1832864,10.6931682 L24.1832864,10.6931682 Z" id="Path" fill="#F78200"></path>
        </g>
    </g>
</svg>