<?xml version="1.0" encoding="UTF-8"?>
<svg width="150px" height="40px" viewBox="0 0 150 40" version="1.1" xmlns="http://www.w3.org/2000/svg" xmlns:xlink="http://www.w3.org/1999/xlink">
    <!-- Generator: Sketch 46.2 (44496) - http://www.bohemiancoding.com/sketch -->
    <title>logo_cooperate_jindi</title>
    <desc>Created with Sketch.</desc>
    <defs>
        <rect id="path-1" x="0" y="0" width="180" height="60"></rect>
    </defs>
    <g id="Page-1" stroke="none" stroke-width="1" fill="none" fill-rule="evenodd">
        <g id="1_首页" transform="translate(-316.000000, -3862.000000)">
            <g id="logo_cooperate_jindi" transform="translate(301.000000, 3850.000000)">
                <g>
                    <g id="Group-12">
                        <mask id="mask-2" fill="white">
                            <use xlink:href="#path-1"></use>
                        </mask>
                        <use id="Mask" fill="#4A4A4A" opacity="0" xlink:href="#path-1"></use>
                    </g>
                    <g id="金地集团" transform="translate(15.300000, 12.600000)">
                        <polygon id="Fill-1" fill="#9F9FA9" points="36.9 22.5 42.3 22.5 42.3 17.1 36.9 17.1"></polygon>
                        <polygon id="Fill-2" fill="#9F9FA9" points="9 25.2 33.3 25.2 33.3 0 9 0"></polygon>
                        <path d="M4.66415898,34.0266533 L8.1,34.0266533 L8.1,34.3092184 C8.1,34.9745491 8.01760114,35.5436874 7.87004968,36.0406814 C7.72249823,36.5036072 7.48105039,36.938477 7.14570617,37.3392786 C6.37345635,38.2370741 5.4,38.7 4.20617459,38.7 C3.03917672,38.7 2.0523066,38.2671343 1.22831796,37.3853707 C0.408161817,36.5036072 0,35.451503 0,34.2170341 C0,32.952505 0.415826828,31.8943888 1.24556423,31.0086172 C2.0887154,30.1388778 3.11199432,29.7 4.3192335,29.7 C4.9707594,29.7 5.57629524,29.8382766 6.13775727,30.1088176 C6.68197303,30.3913828 7.20894251,30.8342685 7.71483322,31.4655311 L6.8371895,32.3492986 C6.1530873,31.3953908 5.31951739,30.9224449 4.34222853,30.9224449 C3.47033357,30.9224449 2.72491128,31.2410822 2.13278921,31.8803607 C1.53108588,32.5056112 1.23981547,33.2771543 1.23981547,34.2170341 C1.23981547,35.1849699 1.56941093,35.9785571 2.23243435,36.6018036 C2.86479773,37.1789579 3.52207239,37.4655311 4.26366217,37.4655311 C4.86344925,37.4655311 5.42107878,37.2571142 5.91738822,36.8262525 C6.4079489,36.3853707 6.68197303,35.8643287 6.73754436,35.2611222 L4.66415898,35.2611222 L4.66415898,34.0266533" id="Fill-3" fill="#9F9FA9"></path>
                        <path d="M13.025975,35.3147018 C12.8542219,34.668724 12.4084816,34.3541609 11.7214691,34.3541609 C11.5722075,34.3541609 11.4229459,34.3822469 11.2839076,34.4253121 C11.14078,34.4590153 11.0201439,34.5208044 10.9056418,34.6162968 C10.7972738,34.69681 10.7052632,34.7923024 10.6214313,34.9177531 C10.5396441,35.0319695 10.4783037,35.1667822 10.4394548,35.3147018 L13.025975,35.3147018 M14.355017,36.2752427 L10.3535782,36.2752427 C10.3903824,36.6871706 10.53351,37.0373093 10.7972738,37.2676144 C11.0651268,37.5128988 11.3922757,37.6308599 11.8155244,37.6308599 C12.1365392,37.6308599 12.4023476,37.5671983 12.610905,37.4286408 C12.8174176,37.2882108 13.0546005,37.0373093 13.3122302,36.6590846 L14.4,37.2114424 C14.2446043,37.4754508 14.0646725,37.7038835 13.8724725,37.8967406 C13.6823173,38.076491 13.4839833,38.2225381 13.2774707,38.3536061 C13.0546005,38.4771845 12.8255964,38.5558252 12.565922,38.615742 C12.3226051,38.6794036 12.0567967,38.7 11.7664521,38.7 C10.9342673,38.7 10.2697463,38.4509709 9.7585763,37.9660194 C9.25762969,37.4679612 9,36.8182386 9,36 C9,35.1929958 9.25149565,34.5339112 9.7381295,34.0321082 C10.226808,33.5396671 10.8770163,33.3 11.6948883,33.3 C12.5229837,33.3 13.1772813,33.5340499 13.6496024,34.0115118 C14.1280576,34.4852288 14.3631958,35.1536755 14.3631958,36 L14.355017,36.2752427" id="Fill-4" fill="#DBDBE0"></path>
                        <path d="M15.3,33.4463102 L16.5089409,33.4463102 L16.5089409,33.9314439 C16.7350186,33.688877 16.9400213,33.5213904 17.100958,33.4328342 C17.2791378,33.3308021 17.5013837,33.3 17.7696115,33.3 C18.3616285,33.3 18.8291112,33.5464171 19.1739755,34.0739037 C19.5552422,33.5464171 20.0706227,33.3 20.722033,33.3 C21.9022352,33.3 22.5,34.0122995 22.5,35.4407487 L22.5,38.7 L21.2718999,38.7 L21.2718999,35.7718717 C21.2718999,35.273262 21.2125067,34.9074866 21.0937201,34.7072727 C20.9691857,34.4916578 20.7641831,34.3838503 20.4729643,34.3838503 C20.1376796,34.3838503 19.8905269,34.5051337 19.7410857,34.7650267 C19.580149,35.0172193 19.5130921,35.4214973 19.5130921,35.9740107 L19.5130921,38.7 L18.2869079,38.7 L18.2869079,35.791123 C18.2869079,34.8497326 18.0244279,34.3838503 17.4822246,34.3838503 C17.1411921,34.3838503 16.8902076,34.5051337 16.7350186,34.7650267 C16.5836615,35.0229947 16.5089409,35.4214973 16.5089409,35.9740107 L16.5089409,38.7 L15.3,38.7 L15.3,33.4463102" id="Fill-5" fill="#DBDBE0"></path>
                        <path d="M24.6693305,35.9762419 C24.6693305,36.4663687 24.7976242,36.8610892 25.0775378,37.1678861 C25.3535637,37.4821659 25.7015119,37.6318229 26.1388769,37.6318229 C26.5859611,37.6318229 26.9475162,37.4821659 27.2352052,37.1753689 C27.5131749,36.8797963 27.6492441,36.477593 27.6492441,36.0024319 C27.6492441,35.5235294 27.5131749,35.1250676 27.2352052,34.8107878 C26.9475162,34.5152151 26.5859611,34.3580752 26.1447084,34.3580752 C25.7170626,34.3580752 25.3671706,34.5152151 25.0833693,34.8182706 C24.7976242,35.1362918 24.6693305,35.5160466 24.6693305,35.9762419 M27.5617711,29.7 L28.8,29.7 L28.8,38.5522137 L27.5617711,38.5522137 L27.5617711,38.0190605 C27.0777538,38.4773852 26.5276458,38.7 25.925054,38.7 C25.2,38.7 24.6012959,38.445583 24.1172786,37.9330077 C23.6390929,37.4166909 23.4,36.7544585 23.4,35.9762419 C23.4,35.2223446 23.6390929,34.5881729 24.1172786,34.0699855 C24.5779698,33.551798 25.1844492,33.3048639 25.8939525,33.3048639 C26.5198704,33.3048639 27.0719222,33.5443151 27.5617711,34.0363126 L27.5617711,29.7" id="Fill-6" fill="#DBDBE0"></path>
                        <path d="M31.8579877,35.9737864 C31.8579877,36.4643551 31.9981969,36.8594313 32.2688785,37.1665049 C32.5570862,37.481068 32.9115038,37.6308599 33.3340786,37.6308599 C33.7839163,37.6308599 34.1519654,37.481068 34.4323837,37.1739945 C34.7186441,36.8781553 34.8569059,36.4755895 34.8569059,36 C34.8569059,35.5206657 34.7186441,35.1218447 34.4323837,34.8072816 C34.1519654,34.5114424 33.7917057,34.3541609 33.341868,34.3541609 C32.9212405,34.3541609 32.5707176,34.5114424 32.2805626,34.8147712 C32.0040389,35.1330791 31.8579877,35.5131761 31.8579877,35.9737864 M34.7653805,33.4423024 L36,33.4423024 L36,38.5520804 L34.7653805,38.5520804 L34.7653805,38.0184466 C34.2610169,38.4771845 33.7157591,38.7 33.1373963,38.7 C32.3993509,38.7 31.7937252,38.4453537 31.3068878,37.9323162 C30.8356293,37.415534 30.6,36.7527046 30.6,35.9737864 C30.6,35.2192094 30.8356293,34.5694868 31.3068878,34.0658114 C31.7859358,33.5396671 32.3915615,33.3 33.102344,33.3 C33.7157591,33.3 34.2688063,33.5396671 34.7653805,34.0321082 L34.7653805,33.4423024" id="Fill-7" fill="#DBDBE0"></path>
                        <polygon id="Fill-8" fill="#DBDBE0" points="36.9 38.7 37.8 38.7 37.8 29.7 36.9 29.7"></polygon>
                        <path d="M43.6177963,35.3147018 C43.4378644,34.668724 43.0105263,34.3541609 42.3153351,34.3541609 C42.1558501,34.3541609 42.0188565,34.3822469 41.8777736,34.4253121 C41.74078,34.4590153 41.6119652,34.5208044 41.5015524,34.6162968 C41.3850057,34.69681 41.2970844,34.7923024 41.2050738,34.9177531 C41.13351,35.0319695 41.0680803,35.1667822 41.025142,35.3147018 L43.6177963,35.3147018 M44.942749,36.2752427 L40.9392654,36.2752427 C40.967891,36.6871706 41.1191973,37.0373093 41.3931844,37.2676144 C41.6487694,37.5128988 41.9840969,37.6308599 42.399167,37.6308599 C42.7304051,37.6308599 43.0023476,37.5671983 43.2006816,37.4286408 C43.4092389,37.2882108 43.6443771,37.0373093 43.9101855,36.6590846 L45,37.2114424 C44.8262022,37.4754508 44.648315,37.7038835 44.4622491,37.8967406 C44.2761833,38.076491 44.0839833,38.2225381 43.8611132,38.3536061 C43.6443771,38.4771845 43.4174176,38.5558252 43.165922,38.615742 C42.9144264,38.6794036 42.6506626,38.7 42.354184,38.7 C41.5260886,38.7 40.8615676,38.4509709 40.3524423,37.9660194 C39.8433169,37.4679612 39.6,36.8182386 39.6,36 C39.6,35.1929958 39.8371829,34.5339112 40.3238167,34.0321082 C40.8165846,33.5396671 41.4770163,33.3 42.2867096,33.3 C43.1107156,33.3 43.7527452,33.5340499 44.239379,34.0115118 C44.7117001,34.4852288 44.942749,35.1536755 44.942749,36 L44.942749,36.2752427" id="Fill-9" fill="#DBDBE0"></path>
                        <polygon id="Fill-10" fill="#FFFFFE" points="26.1 22.5 30.6 22.5 30.6 17.1 26.1 17.1"></polygon>
                        <path d="M22.540518,16.8764058 C22.540518,17.3281464 22.540518,20.5990479 22.540518,21.0639096 C22.0684551,21.0639096 18.3308048,21.0639096 17.8548566,21.0639096 C17.8548566,20.9401964 17.8548566,18.4078251 17.8548566,16.8764058 C20.2015726,16.8764058 22.2899167,16.8764058 22.540518,16.8764058 M17.2895467,7.17241892 C17.2895467,10.3964594 17.2895467,12.6945254 17.2895467,16.3290687 C15.2555967,16.3290687 13.3964847,16.3290687 13.1711378,16.3290687 C13.1711378,15.8267182 13.1711378,7.67476941 13.1711378,7.17241892 C13.2935245,7.17241892 15.7859389,7.17241892 17.2895467,7.17241892 M30.9366327,3.25108599 C30.9366327,3.68595656 30.9366327,6.18083904 30.9366327,6.61945849 C30.5345051,6.61945849 23.0184089,6.61945849 17.8548566,6.61945849 C17.8548566,5.54915204 17.8548566,3.35043142 17.8548566,3.25108599 C18.3813136,3.25108599 30.4062905,3.25108599 30.9366327,3.25108599 M31.2124884,2.7 L17.2895467,2.7 C17.2895467,2.7 17.2895467,5.4629277 17.2895467,6.61945849 C15.6829787,6.61945849 12.6,6.61945849 12.6,6.61945849 L12.6,16.8764058 C12.6,16.8764058 15.1176688,16.8764058 17.2895467,16.8764058 C17.2895467,18.5034216 17.2895467,21.6 17.2895467,21.6 L23.1058279,21.6 L23.1058279,16.3290687 C23.1058279,16.3290687 20.3375578,16.3290687 17.8548566,16.3290687 C17.8548566,12.6945254 17.8548566,10.3964594 17.8548566,7.17241892 C23.1233117,7.17241892 31.5,7.17241892 31.5,7.17241892 L31.5,2.7 L31.2124884,2.7" id="Fill-11" fill="#FFFFFE"></path>
                        <polygon id="Fill-12" fill="#FFFFFE" points="26.1 22.5 30.6 22.5 30.6 17.1 26.1 17.1"></polygon>
                        <path d="M22.540518,16.8764058 C22.540518,17.3281464 22.540518,20.5990479 22.540518,21.0639096 C22.0684551,21.0639096 18.3308048,21.0639096 17.8548566,21.0639096 C17.8548566,20.9401964 17.8548566,18.4078251 17.8548566,16.8764058 C20.2015726,16.8764058 22.2899167,16.8764058 22.540518,16.8764058 M17.2895467,7.17241892 C17.2895467,10.3964594 17.2895467,12.6945254 17.2895467,16.3290687 C15.2555967,16.3290687 13.3964847,16.3290687 13.1711378,16.3290687 C13.1711378,15.8267182 13.1711378,7.67476941 13.1711378,7.17241892 C13.2935245,7.17241892 15.7859389,7.17241892 17.2895467,7.17241892 M30.9366327,3.25108599 C30.9366327,3.68595656 30.9366327,6.18083904 30.9366327,6.61945849 C30.5345051,6.61945849 23.0184089,6.61945849 17.8548566,6.61945849 C17.8548566,5.54915204 17.8548566,3.35043142 17.8548566,3.25108599 C18.3813136,3.25108599 30.4062905,3.25108599 30.9366327,3.25108599 M31.2124884,2.7 L17.2895467,2.7 C17.2895467,2.7 17.2895467,5.4629277 17.2895467,6.61945849 C15.6829787,6.61945849 12.6,6.61945849 12.6,6.61945849 L12.6,16.8764058 C12.6,16.8764058 15.1176688,16.8764058 17.2895467,16.8764058 C17.2895467,18.5034216 17.2895467,21.6 17.2895467,21.6 L23.1058279,21.6 L23.1058279,16.3290687 C23.1058279,16.3290687 20.3375578,16.3290687 17.8548566,16.3290687 C17.8548566,12.6945254 17.8548566,10.3964594 17.8548566,7.17241892 C23.1233117,7.17241892 31.5,7.17241892 31.5,7.17241892 L31.5,2.7 L31.2124884,2.7" id="Fill-13" fill="#FFFFFE"></path>
                        <polygon id="Fill-14" fill="#DBDBE0" points="127.8 20.7 131.4 20.7 131.4 0 127.8 0"></polygon>
                        <polygon id="Fill-15" fill="#DBDBE0" points="145.8 20.7 149.4 20.7 149.4 1.8 145.8 1.8"></polygon>
                        <polygon id="Fill-16" fill="#DBDBE0" points="133.2 7.2 144.9 7.2 144.9 5.4 133.2 5.4"></polygon>
                        <polygon id="Fill-17" fill="#DBDBE0" points="107.1 3.6 123.3 3.6 123.3 1.8 107.1 1.8"></polygon>
                        <polygon id="Fill-18" fill="#DBDBE0" points="108 7.2 124.2 7.2 124.2 5.4 108 5.4"></polygon>
                        <polygon id="Fill-19" fill="#DBDBE0" points="108 9.9 124.2 9.9 124.2 8.1 108 8.1"></polygon>
                        <polygon id="Fill-20" fill="#DBDBE0" points="108 13.5 124.2 13.5 124.2 11.7 108 11.7"></polygon>
                        <polygon id="Fill-21" fill="#DBDBE0" points="131.4 21.6 148.5 21.6 148.5 19.8 131.4 19.8"></polygon>
                        <path d="M149.4,20.2468918 C149.4,20.9866462 148.796544,21.6 148.052074,21.6 C147.311751,21.6 146.7,20.9866462 146.7,20.2468918 C146.7,19.4988488 147.311751,18.9 148.052074,18.9 C148.796544,18.9 149.4,19.4988488 149.4,20.2468918" id="Fill-22" fill="#DBDBE0"></path>
                        <polyline id="Fill-23" fill="#DBDBE0" points="106.773005 20.7 103.5 20.7 106.528778 16.2 109.8 16.2 106.773005 20.7"></polyline>
                        <polyline id="Fill-24" fill="#DBDBE0" points="121.362751 20.7 125.1 20.7 121.637249 16.2 117.9 16.2 121.362751 20.7"></polyline>
                        <polygon id="Fill-25" fill="#DBDBE0" points="103.5 16.2 125.1 16.2 125.1 14.4 103.5 14.4"></polygon>
                        <polygon id="Fill-26" fill="#DBDBE0" points="112.5 19.8 116.1 19.8 116.1 13.5 112.5 13.5"></polygon>
                        <polygon id="Fill-27" fill="#DBDBE0" points="111.6 21.6 115.2 21.6 115.2 19.8 111.6 19.8"></polygon>
                        <path d="M116.1,20.2468918 C116.1,20.9866462 115.497229,21.6 114.748961,21.6 C113.996536,21.6 113.4,20.9866462 113.4,20.2468918 C113.4,19.4988488 113.996536,18.9 114.748961,18.9 C115.497229,18.9 116.1,19.4988488 116.1,20.2468918" id="Fill-28" fill="#DBDBE0"></path>
                        <polygon id="Fill-29" fill="#DBDBE0" points="96.3 16.2 99.9 16.2 99.9 5.4 96.3 5.4"></polygon>
                        <polygon id="Fill-30" fill="#DBDBE0" points="95.4 18 99 18 99 16.2 95.4 16.2"></polygon>
                        <path d="M99.9,16.6582949 C99.9,17.3861751 99.2974693,18 98.55,18 C97.8025307,18 97.2,17.3861751 97.2,16.6582949 C97.2,15.9096774 97.8025307,15.3 98.55,15.3 C99.2974693,15.3 99.9,15.9096774 99.9,16.6582949" id="Fill-31" fill="#DBDBE0"></path>
                        <polygon id="Fill-32" fill="#DBDBE0" points="85.5 19.8 89.1 19.8 89.1 0.9 85.5 0.9"></polygon>
                        <polygon id="Fill-33" fill="#DBDBE0" points="79.2 18.9 82.8 18.9 82.8 1.8 79.2 1.8"></polygon>
                        <polygon id="Fill-34" fill="#DBDBE0" points="86.4 21.6 99.9 21.6 99.9 19.8 86.4 19.8"></polygon>
                        <polygon id="Fill-35" fill="#DBDBE0" points="78.3 19.8 81.9 19.8 81.9 18 78.3 18"></polygon>
                        <polyline id="Fill-36" fill="#DBDBE0" points="81.7830092 19.8 84.6 17.4967742 83.8114637 16.2 81 18.4946237 81.7830092 19.8"></polyline>
                        <polygon id="Fill-37" fill="#DBDBE0" points="78.3 6.3 99.9 6.3 99.9 4.5 78.3 4.5"></polygon>
                        <path d="M85.5,20.2613968 C85.5,21.0011512 86.1029931,21.6 86.8448196,21.6 C87.5825019,21.6 88.2,21.0011512 88.2,20.2613968 C88.2,19.5092095 87.5825019,18.9 86.8448196,18.9 C86.1029931,18.9 85.5,19.5092095 85.5,20.2613968" id="Fill-38" fill="#DBDBE0"></path>
                        <polygon id="Fill-39" fill="#DBDBE0" points="139.5 17.1 143.1 17.1 143.1 2.7 139.5 2.7"></polygon>
                        <polygon id="Fill-40" fill="#DBDBE0" points="104.4 13.5 108 13.5 108 3.6 104.4 3.6"></polygon>
                        <polygon id="Fill-41" fill="#DBDBE0" points="113.4 12.6 117 12.6 117 0 113.4 0"></polygon>
                        <polygon id="Fill-42" fill="#DBDBE0" points="90.9 18 94.5 18 94.5 0 90.9 0"></polygon>
                        <polyline id="Fill-43" fill="#DBDBE0" points="69.870229 18.9 66.6 18.9 69.629771 14.4 72.9 14.4 69.870229 18.9"></polyline>
                        <polyline id="Fill-44" fill="#DBDBE0" points="57.9244275 18.9 61.2 18.9 58.1666667 14.4 54.9 14.4 57.9244275 18.9"></polyline>
                        <polygon id="Fill-45" fill="#DBDBE0" points="53.1 21.6 74.7 21.6 74.7 19.8 53.1 19.8"></polygon>
                        <polygon id="Fill-46" fill="#DBDBE0" points="54 14.4 73.8 14.4 73.8 12.6 54 12.6"></polygon>
                        <polygon id="Fill-47" fill="#DBDBE0" points="55.8 9 72 9 72 7.2 55.8 7.2"></polygon>
                        <polygon id="Fill-48" fill="#DBDBE0" points="62.1 20.7 65.7 20.7 65.7 8.1 62.1 8.1"></polygon>
                        <polyline id="Fill-49" fill="#DBDBE0" points="106.297388 5.4 102.6 5.4 106.998582 0 110.7 0 106.297388 5.4"></polyline>
                        <polyline id="Fill-50" fill="#DBDBE0" points="135.7612 16.2 132.3 16.2 136.935031 6.3 140.4 6.3 135.7612 16.2"></polyline>
                        <polygon id="Fill-51" fill="#DBDBE0" points="137.7 18.9 141.3 18.9 141.3 17.1 137.7 17.1"></polygon>
                        <path d="M143.1,17.553094 C143.1,18.2935829 142.495615,18.9 141.745846,18.9 C141.004385,18.9 140.4,18.2935829 140.4,17.553094 C140.4,16.8002292 141.004385,16.2 141.745846,16.2 C142.495615,16.2 143.1,16.8002292 143.1,17.553094" id="Fill-52" fill="#DBDBE0"></path>
                        <path d="M149.4,1.36033691 C149.4,2.09839204 148.796544,2.7 148.052074,2.7 C147.311751,2.7 146.7,2.09839204 146.7,1.36033691 C146.7,0.61194487 147.311751,0 148.052074,0 C148.796544,0 149.4,0.61194487 149.4,1.36033691" id="Fill-53" fill="#DBDBE0"></path>
                        <path d="M59.4278705,4.32007656 C59.4278705,4.32007656 59.4199075,4.41195236 59.4,4.5 C59.8120853,4.25308379 64.3151619,1.47766908 64.3151619,1.47766908 C64.3151619,1.47766908 68.8839332,4.04827733 69.3,4.28370906 C69.292037,4.19183326 69.2781017,4.09995746 69.2781017,4.09995746 C68.8759702,1.7226712 66.8115624,0 64.3709029,0 C61.8545948,0 59.726483,1.84900043 59.4278705,4.32007656" id="Fill-54" fill="#DBDBE0"></path>
                        <path d="M61.5028571,0.9 C61.4495238,0.931327049 52.392381,6.41551849 52.2,6.5369108 C52.3047619,6.72683104 53.432381,8.81007977 53.5466667,9 C53.752381,8.87860769 66.407619,1.22893401 66.6,1.10166788 C66.567619,1.01943437 66.5333333,0.962654097 66.4990476,0.9 C66.3580952,0.9 61.5714286,0.9 61.5028571,0.9" id="Fill-55" fill="#DBDBE0"></path>
                        <path d="M62.1,1.41693764 C62.6741508,1.78449405 74.0826015,8.87813637 74.2708782,9 C74.3883181,8.80934239 75.5012013,6.71800534 75.6,6.52734773 C75.3986744,6.40548411 66.5776305,0.939310847 66.5272991,0.915724339 L66.5272991,0.9 C66.5272991,0.9 62.7002486,1.35600582 62.1,1.41693764" id="Fill-56" fill="#DBDBE0"></path>
                        <polygon id="Fill-57" fill="#DBDBE0" points="131.4 1.8 148.5 1.8 148.5 0 131.4 0"></polygon>
                        <path d="M144.103396,30.06324 C144.197267,30.13848 144.289222,30.2157 144.379261,30.30678 L140.869641,30.30678 C140.630174,30.30678 140.354309,30.27708 140.04396,30.24936 C140.072696,30.80376 140.091854,31.19382 140.105264,31.42152 C140.091854,31.60764 140.072696,31.8096 140.04396,32.0175 L140.701056,32.0175 L140.662742,31.19382 L140.662742,30.81168 L147.538303,30.81168 C147.519145,31.37994 147.505735,31.68486 147.505735,31.72644 C147.505735,31.79574 147.505735,31.86504 147.498072,31.94028 L148.162831,31.94028 C148.120685,31.6017 148.101528,31.28688 148.101528,30.99186 C148.101528,30.76614 148.120685,30.5127 148.162831,30.24936 L146.961667,30.30678 L144.478879,30.30678 C144.593823,30.13848 144.727924,29.98008 144.862026,29.84346 C144.580413,29.54844 144.151289,29.20788 143.561244,28.8 C143.492277,28.90494 143.406069,29.0178 143.291126,29.14848 C143.252811,29.17026 143.197255,29.22372 143.14553,29.3148 L143.739407,29.74446 L144.103396,30.06324 M145.490386,34.3935 C145.647476,35.1459 145.894605,35.76168 146.256678,36.2745 C146.599594,36.76158 147.141746,37.28034 147.877387,37.83672 C148.02873,37.5912 148.243292,37.37736 148.5,37.20312 C148.05555,36.98334 147.720297,36.78732 147.457842,36.58734 C146.881207,36.12798 146.49806,35.63694 146.317982,35.08848 C146.17047,34.71426 146.068937,34.3737 146.015296,34.09848 C146.109167,34.04898 146.191543,33.99354 146.270088,33.93216 C146.749021,33.58368 147.114926,33.38766 147.369718,33.3639 C147.431022,33.3639 147.484662,33.34212 147.538303,33.30054 C147.431022,33.19758 147.18964,32.9877 146.793083,32.70258 C146.513386,32.98176 146.224111,33.23916 145.929088,33.4926 C145.584256,33.72822 145.176206,33.98562 144.712598,34.25886 C144.593823,33.96186 144.446312,33.7203 144.25857,33.50844 C144.089986,33.32034 143.81412,33.09264 143.4463,32.85702 L144.044008,32.22738 L146.43101,32.24718 C146.492313,32.24718 146.678139,32.25114 146.996151,32.28084 L146.996151,31.66308 C146.599594,31.68486 146.352465,31.71258 146.216448,31.7205 L141.689574,31.70466 L141.172326,31.66308 L141.172326,32.28084 L141.963524,32.22738 L143.291126,32.22738 C142.888822,32.6412 142.427131,33.00354 141.923293,33.32034 C141.480759,33.58368 140.923281,33.79554 140.260438,33.95196 C140.453927,34.09056 140.630174,34.26876 140.794927,34.50636 C141.60145,34.16778 142.344754,33.7203 143.036333,33.1758 C143.247064,33.28668 143.373502,33.3837 143.417564,33.42528 C143.452047,33.46686 143.507603,33.51438 143.561244,33.56784 C143.197255,33.97968 142.71449,34.3935 142.089962,34.8192 C141.5344,35.17362 140.909871,35.44884 140.252775,35.6508 C140.453927,35.79534 140.630174,35.98344 140.794927,36.19926 C141.057382,36.08838 141.327501,35.94186 141.572714,35.79534 L142.480771,35.19936 C142.976946,34.85286 143.45971,34.43706 143.942474,33.96186 C144.103396,34.16778 144.21834,34.4232 144.304548,34.72218 C143.607221,35.55378 142.848592,36.19926 142.022911,36.68436 C141.494169,36.97542 140.837073,37.21698 140.072696,37.4328 C140.252775,37.5714 140.42136,37.7793 140.582281,38.0565 C141.344742,37.76544 142.116782,37.34172 142.909895,36.76752 C143.218328,36.54774 143.492277,36.32202 143.739407,36.1062 L144.459722,35.42904 C144.499952,35.75376 144.511447,36.08838 144.511447,36.40122 C144.511447,36.82296 144.465469,37.14174 144.365851,37.36944 C144.24516,37.66248 143.967379,37.81494 143.566991,37.81494 C143.43289,37.81494 143.178097,37.79316 142.835181,37.7397 C142.976946,37.9872 143.076564,38.25054 143.130204,38.53566 C143.467373,38.53566 143.762396,38.50002 143.975042,38.44458 C144.478879,38.32182 144.800722,38.02878 144.961644,37.58526 C145.049767,37.30212 145.097661,36.93384 145.103408,36.46854 C145.103408,35.9082 145.049767,35.32014 144.940571,34.75584 C145.116818,34.63704 145.30456,34.5123 145.490386,34.3935 M116.348275,29.0079 C116.267815,29.3841 116.089651,29.85534 115.834859,30.43746 C115.650949,30.81762 115.476617,31.14432 115.315696,31.40172 C115.149027,31.63734 114.968948,31.85118 114.765881,32.05314 C115.120291,32.16204 115.334853,32.25906 115.449797,32.34222 C115.725662,31.87296 116.007275,31.35816 116.28314,30.81168 L116.972804,30.81168 L117.444074,31.55418 C117.555186,31.78188 117.698866,32.06898 117.878945,32.42736 C117.921091,32.38578 117.959406,32.364 118.016878,32.32242 C118.221861,32.1759 118.355962,32.10264 118.390445,32.08086 C118.267838,31.8294 118.173968,31.6512 118.112664,31.56012 C117.817641,31.12848 117.672046,30.88098 117.6299,30.81168 L118.938344,30.81168 C118.991985,30.81168 119.093519,30.81762 119.239114,30.8394 C119.363637,30.8394 119.480497,30.84336 119.591609,30.86118 L119.591609,30.23154 C119.348311,30.24936 119.141412,30.26322 118.938344,30.27708 L116.549427,30.27708 C116.589657,30.22758 116.631804,30.13848 116.677781,29.99988 C116.785062,29.7306 116.942152,29.54052 117.147135,29.4237 C117.160545,29.41776 117.181619,29.40192 117.216102,29.37618 C117.181619,29.34648 117.154798,29.32668 117.114568,29.3148 L116.348275,29.0079 M112.73329,30.86118 L113.122183,31.46904 C113.357818,31.88088 113.511077,32.14224 113.578127,32.27292 C113.591537,32.33826 113.620273,32.39766 113.645178,32.46102 C113.848245,32.2947 114.020661,32.16996 114.194993,32.09472 L113.424869,30.86118 L114.369324,30.86118 C114.570476,30.86118 114.790785,30.8889 115.02642,30.9285 L115.02642,30.30678 C114.785038,30.30678 114.566645,30.32658 114.369324,30.33846 L112.580031,30.33846 C112.685396,30.1167 112.754363,29.98008 112.808003,29.91078 C112.909537,29.74446 113.014902,29.62962 113.137509,29.54844 C113.154751,29.54052 113.175824,29.52864 113.196897,29.48706 C113.196897,29.48706 113.175824,29.45934 113.154751,29.45142 L112.403784,29.1267 C112.239031,29.87514 111.840559,30.67704 111.20262,31.55418 C110.989974,31.83732 110.773496,32.10264 110.520619,32.32242 C110.760086,32.4135 110.911429,32.48082 110.947828,32.5125 C111.001468,32.53032 111.07235,32.57982 111.170053,32.65506 C111.378867,32.38578 111.539789,32.14224 111.681553,31.94028 C111.840559,31.68486 112.049373,31.32252 112.30225,30.86118 L112.73329,30.86118 M116.763989,36.19926 C116.777399,36.1854 116.919163,36.10224 117.193113,35.92998 C117.173956,35.89236 117.147135,35.85672 117.129894,35.83296 C117.085832,35.75376 117.049433,35.67852 117.013034,35.62308 L116.235247,34.45884 L115.740988,34.7697 C115.898078,35.0172 116.047505,35.24886 116.164365,35.4627 L116.639466,36.29628 C116.677781,36.26262 116.719927,36.23292 116.763989,36.19926 M117.444074,33.19758 L117.444074,37.34766 C117.444074,37.64862 117.503461,37.8486 117.6299,37.9674 C117.765917,38.07234 118.016878,38.1258 118.390445,38.12976 C118.712288,38.12976 118.991985,38.09214 119.22762,38.01294 C119.444098,37.94562 119.622261,37.75158 119.744868,37.44468 C119.796592,37.2942 119.871306,36.98334 119.980503,36.49032 C119.710384,36.4131 119.50157,36.30222 119.329154,36.17352 C119.296586,36.52398 119.25444,36.8091 119.216126,37.02294 C119.172064,37.26648 119.053288,37.41894 118.850221,37.4526 C118.712288,37.47438 118.55903,37.49616 118.355962,37.49616 C118.248681,37.49616 118.173968,37.4823 118.112664,37.4526 C118.034119,37.41894 117.993889,37.26648 117.993889,37.00314 L117.993889,33.42528 C117.993889,33.28668 118.016878,33.0174 118.053276,32.61348 C117.612658,32.6412 117.256332,32.66298 116.986214,32.66298 L115.210331,32.62734 C115.14328,32.62734 115.081977,32.6214 115.02642,32.61348 C115.041746,32.87088 115.068566,33.4926 115.108797,34.50636 L115.02642,35.4627 C114.968948,35.76168 114.913392,36.01116 114.865499,36.19926 C114.704577,36.8091 114.369324,37.33578 113.840582,37.78524 C113.645178,37.92384 113.424869,38.09214 113.122183,38.25648 C113.369312,38.34558 113.61261,38.48616 113.848245,38.7 C114.516836,38.11986 114.982359,37.54368 115.248645,36.96156 C115.40382,36.55764 115.518763,36.10224 115.576235,35.58942 C115.606887,35.29638 115.622213,34.96968 115.637539,34.59744 C115.658612,34.20144 115.664359,33.72822 115.664359,33.19758 L117.444074,33.19758 M113.154751,33.6609 C113.840582,33.6609 114.24097,33.6609 114.390397,33.68268 C114.444038,33.68268 114.491931,33.69654 114.551319,33.70842 L114.551319,33.05502 C114.110701,33.09264 113.848245,33.11442 113.775448,33.1263 L111.752435,33.11442 L111.336721,33.05502 L111.336721,33.70842 C111.79075,33.68268 112.210295,33.6609 112.599188,33.6609 L112.599188,36.74178 C112.363553,36.79524 112.062783,36.86454 111.716036,36.9477 C111.378867,37.00908 111.076182,37.05858 110.840547,37.10412 C110.955491,37.28034 111.057024,37.41894 111.124075,37.52982 C111.183463,37.64862 111.225609,37.75158 111.250513,37.83672 L111.708373,37.63476 L112.411447,37.37736 L114.369324,36.7794 C114.369324,36.58734 114.382735,36.3933 114.405723,36.1854 C113.993841,36.33786 113.583874,36.46854 113.154751,36.60714 L113.154751,33.6609 M85.5835402,28.8297 C85.5030795,28.90494 85.3804727,29.0079 85.2348771,29.09304 C85.2348771,29.09304 85.2272141,29.10096 85.213804,29.11878 C85.1678265,29.14848 85.1199332,29.17026 85.0777871,29.20788 C85.6161077,29.9583 86.0145799,30.59586 86.2674564,31.08888 C86.4283779,30.99186 86.5643948,30.8889 86.677423,30.81168 C86.7253163,30.78198 86.7770411,30.75822 86.8517546,30.71466 C86.7310635,30.53448 86.570142,30.26322 86.3210969,29.889 C86.0471473,29.45934 85.792355,29.09304 85.5835402,28.8297 M84.4034495,31.14432 C84.4992361,31.02552 84.6237587,30.91266 84.77127,30.79584 L83.8766233,29.85534 L83.2156959,29.18016 C83.0950048,29.32668 82.9417462,29.4732 82.7463416,29.62962 C83.0126283,29.87514 83.2904094,30.13848 83.5777692,30.43746 C83.8842862,30.78198 84.1199212,31.06512 84.2616854,31.26906 C84.3095787,31.22154 84.3555562,31.17204 84.4034495,31.14432 M87.798126,31.5324 C88.4226546,30.47112 88.7579076,29.92662 88.8038852,29.85534 C88.9590594,29.65338 89.1199809,29.51478 89.2943125,29.45142 C89.3268799,29.4435 89.3651946,29.41776 89.4015935,29.39004 C89.3651946,29.36232 89.3268799,29.3346 89.2655765,29.29896 L88.5356827,28.9188 C88.4686321,29.18016 88.3326152,29.50884 88.1333791,29.889 C87.8575137,30.39588 87.5299236,30.93642 87.1735975,31.5324 L82.9187575,31.5324 C82.6984483,31.5324 82.4110886,31.51062 82.0681726,31.48092 C82.1064872,31.96998 82.1141502,32.31054 82.129476,32.48676 C82.129476,32.65506 82.1064872,32.99562 82.0681726,33.51438 L82.7329315,33.51438 L82.6907854,32.66298 L82.6907854,32.06898 L89.4954643,32.06898 L89.4954643,32.57982 C89.4954643,32.80752 89.4820542,33.07086 89.4514025,33.37776 L90.1180771,33.37776 C90.0740153,32.85702 90.0586894,32.46102 90.0663524,32.19768 C90.0740153,31.98978 90.0912569,31.74822 90.1180771,31.48092 C89.554852,31.51062 89.1525483,31.52646 88.897756,31.5324 L87.798126,31.5324 M85.9053831,35.1459 L82.3306278,35.13006 C82.1812008,35.08848 81.9685545,35.08848 81.7252566,35.06868 C81.6926892,35.06868 81.6735319,35.06868 81.6467116,35.06868 L81.6467116,35.71416 C81.7463297,35.7003 81.8478635,35.7003 81.9685545,35.7003 C81.9819647,35.7003 82.0681726,35.67852 82.2233469,35.67852 C82.3038076,35.67852 82.3766054,35.67852 82.443656,35.65674 L85.9379506,35.65674 L85.9379506,37.34172 C85.9379506,37.5714 85.8862258,37.71 85.7846921,37.76544 C85.685074,37.83672 85.5030795,37.86444 85.2348771,37.87038 C84.9915791,37.87038 84.7444497,37.83672 84.4992361,37.78524 C84.6563261,38.0565 84.7846801,38.32776 84.8306577,38.6109 C85.1084388,38.58912 85.3287479,38.53566 85.5164896,38.50002 C85.8555741,38.43468 86.106535,38.3337 86.2674564,38.22084 C86.4283779,38.09214 86.49926,37.87632 86.5069229,37.55754 L86.5069229,35.65674 L89.6429757,35.67852 C89.9245882,35.67852 90.1985378,35.7003 90.4533302,35.71416 L90.4533302,35.06868 C90.1448974,35.08848 89.8766949,35.10036 89.6353127,35.1162 L86.5069229,35.1162 L86.5069229,34.87266 L86.7310635,34.68852 C87.2866257,34.20936 87.7234125,33.86286 88.0260981,33.61932 C88.3805085,33.32826 88.6218907,33.1263 88.7444975,33.00354 C88.355604,33.0372 88.0260981,33.05106 87.7368226,33.05502 L84.3019157,33.05502 C84.1409943,33.05502 83.9743256,33.05106 83.8134042,33.0372 C83.6850501,33.0372 83.5911793,33.02334 83.4915612,33.00354 L83.4915612,33.64704 C83.7521007,33.61932 84.0183874,33.59952 84.3019157,33.58368 L87.1927548,33.58368 C86.8709119,33.91236 86.4360408,34.245 85.8709,34.6113 C85.899636,34.73406 85.9053831,34.91622 85.9053831,35.1459 M58.5199988,33.4629 L57.3858857,32.32242 C57.2383743,32.5026 57.090863,32.6412 56.9452674,32.75208 C57.1943125,32.98176 57.5410599,33.34212 58.0027513,33.8193 C58.2881953,34.1262 58.5123359,34.40538 58.6809203,34.63704 C58.8495047,34.43112 59.0104261,34.25886 59.1866734,34.14006 L58.5199988,33.4629 M54.3551981,32.34222 C54.1923609,32.78178 54.0525125,33.15996 53.9069169,33.4926 C53.7766472,33.76584 53.6214729,34.04898 53.4490571,34.3638 C53.192349,34.79544 52.9682084,35.1459 52.7766352,35.3934 C52.642534,35.58942 52.4413822,35.78148 52.2,35.9973 C52.563989,36.1062 52.8072869,36.2448 52.9183994,36.36558 C53.2747255,35.8488 53.6367988,35.24886 53.9854619,34.54794 C54.134889,34.27866 54.2728217,34.00146 54.420333,33.7203 L54.420333,37.47438 C54.420333,37.6209 54.4145858,37.7991 54.4011757,38.00304 C54.4011757,38.1258 54.3858498,38.28618 54.3551981,38.46042 L55.0391143,38.46042 C55.0142098,38.32182 54.998884,38.19708 54.9835581,38.09214 L54.9644008,37.4526 L54.9644008,33.60546 C55.3073168,33.89652 55.5352889,34.11234 55.6425698,34.245 C55.7575137,34.3638 55.912688,34.54002 56.0736095,34.79544 C56.1789747,34.5618 56.3149916,34.3638 56.4739974,34.20936 C56.3877894,34.11234 56.2728455,34.0074 56.1713118,33.9183 L55.5084686,33.34212 C55.4548281,33.30054 55.3992719,33.25104 55.3360528,33.19758 L54.9644008,32.87088 L54.9644008,32.34222 L56.4471771,32.36994 C56.4739974,32.36994 56.5065648,32.38578 56.5563738,32.39766 L56.5563738,31.75416 C56.2402781,31.78188 55.9510026,31.79574 55.6885474,31.8096 L54.9644008,31.8096 L54.9644008,29.98008 C55.4145978,29.88108 55.7632609,29.84148 56.0448735,29.83554 C56.0851038,29.83554 56.1368286,29.83554 56.2192051,29.84346 C56.3015815,29.84346 56.3456434,29.82762 56.3456434,29.79198 C56.2728455,29.67912 56.1119241,29.45142 55.912688,29.07918 C55.6828002,29.18016 55.4739854,29.26134 55.3073168,29.32668 C55.1712998,29.37618 55.0142098,29.41182 54.8302996,29.4435 C54.1540463,29.57022 53.6157257,29.62962 53.2057591,29.62962 C53.0793208,29.62962 52.9107365,29.61972 52.7057532,29.59794 C52.8436858,29.82762 52.9452196,30.04938 52.98545,30.285 L53.8168775,30.18798 L54.420333,30.10878 L54.420333,31.8096 L53.4950346,31.8096 C53.2325794,31.8096 52.9183994,31.79574 52.5697362,31.75416 L52.5697362,32.39766 C52.8705061,32.364 53.1655288,32.34618 53.4758773,32.34222 L54.3551981,32.34222 M57.0640427,30.26322 L57.7556219,30.8889 L58.2326391,31.35816 C58.4606111,31.58586 58.6732573,31.8294 58.868662,32.10264 C59.0104261,31.89276 59.1790105,31.72644 59.3590893,31.59378 L58.868662,31.1166 C58.6023753,30.86118 58.3245942,30.60972 58.0717176,30.35232 C57.9357006,30.2157 57.7383803,30.03354 57.4950824,29.82762 C57.3456553,29.99988 57.2115541,30.13848 57.0640427,30.26322 M56.1579016,35.40924 L56.3092444,36.09432 L57.1579136,35.9082 L59.803539,35.4627 L59.7882132,37.9377 L59.7211626,38.57526 L60.4472249,38.57526 L60.3801743,38.106 C60.3801743,37.94562 60.3725113,37.77138 60.3667641,37.5516 L60.3667641,35.40132 C60.9223263,35.33202 61.3322929,35.29638 61.5928324,35.27262 C61.5736751,35.05482 61.5621807,34.84692 61.5468549,34.62318 C61.3112199,34.68852 61.1043208,34.73406 60.9299893,34.77762 C60.7882251,34.80534 60.6004834,34.84692 60.3667641,34.87266 L60.3667641,29.71674 C60.3667641,29.45934 60.4242361,29.27124 60.5583373,29.14848 C60.5851576,29.11878 60.6119778,29.09304 60.6330508,29.07126 C60.6081463,29.04354 60.5525901,29.02968 60.4912867,29.0079 L59.7211626,28.86336 C59.7671401,29.2455 59.7882132,29.59002 59.803539,29.91078 L59.803539,34.9578 L56.9701719,35.36172 L56.1579016,35.40924" id="Fill-58" fill="#DBDBE0"></path>
                    </g>
                </g>
            </g>
        </g>
    </g>
</svg>