<?xml version="1.0" encoding="UTF-8"?>
<svg width="32px" height="32px" viewBox="0 0 32 32" version="1.1" xmlns="http://www.w3.org/2000/svg" xmlns:xlink="http://www.w3.org/1999/xlink">
    <!-- Generator: Sketch 46.2 (44496) - http://www.bohemiancoding.com/sketch -->
    <title>logo_zhihu_c</title>
    <desc>Created with Sketch.</desc>
    <defs></defs>
    <g id="Symbols" stroke="none" stroke-width="1" fill="none" fill-rule="evenodd">
        <g id="logo_zhihu_c">
            <g id="logo_zhihu_n">
                <g id="Group-6" fill="#EA6161" opacity="0">
                    <rect id="Rectangle-5" x="0" y="0" width="32" height="32"></rect>
                </g>
                <g id="zhihu" transform="translate(3.200000, 3.200000)" fill-rule="nonzero" fill="#0087F3">
                    <path d="M8.23707976,13.9477484 L13.7365854,13.9477484 C13.7365854,12.6649027 13.1269908,11.9135233 13.1269908,11.9135233 L8.35412773,11.9135233 C8.46750065,9.58964947 8.56909003,6.60710702 8.60543236,5.49932371 L13.1454536,5.49932371 C13.1454536,5.49932371 13.1208365,3.59340056 12.615923,3.59340056 C12.1110095,3.59340056 4.63568828,3.59340056 4.63568828,3.59340056 C4.63568828,3.59340056 5.11598464,1.10103283 5.75637979,0.000714990866 C5.75637979,0.000714990866 3.37338999,-0.126834614 2.56058749,3.02527243 C1.74778499,6.17737948 0.528566711,8.08333155 0.399268504,8.43151763 C0.269970296,8.77970371 1.10123561,8.59645245 1.4522046,8.43151763 C1.80317356,8.26658282 3.39185286,7.69845469 3.85365724,5.49932371 L6.32117359,5.49932371 C6.35439504,6.89299404 6.45219266,11.1641983 6.42136294,11.9135233 L1.34136921,11.9135233 C0.620939256,12.4266731 0.3807765,13.9477484 0.3807765,13.9477484 L6.18706275,13.9477484 C5.94485827,15.5384724 5.51960044,17.5887858 4.92508531,18.6759378 C3.98298461,20.3986097 3.48419622,21.9746632 0.0852252064,24.6869441 C0.0852252064,24.6869441 -0.468951689,25.0901084 1.24899666,24.943519 C2.96697418,24.7969006 4.59255001,24.3570744 5.71939578,22.1212816 C6.30521909,20.9588962 6.91096359,19.4844367 7.38358898,17.9889409 L7.38201394,17.9941783 L12.166398,23.4590766 C12.166398,23.4590766 12.7944846,21.9929796 12.3326511,20.3802643 L8.78588987,16.4401161 L7.58522188,17.3211574 L7.58393853,17.3254399 C7.91740719,16.1655141 8.15719077,15.0187541 8.23171297,14.0210431 C8.23349218,13.9970262 8.23530055,13.9725175 8.23707976,13.9477484 Z" id="Shape"></path>
                    <path d="M14.9853659,3.12195122 L14.9853659,22.0702834 L16.9778968,22.0702834 L17.7941685,24.3512195 L21.2476143,22.0702834 L25.6,22.0702834 L25.6,3.12195122 L14.9853659,3.12195122 Z M23.5493317,20.0322289 L21.2870782,20.0322289 L18.4654302,21.8958481 L17.7984889,20.0322289 L17.0942006,20.0322289 L17.0942005,5.23651142 L23.5493027,5.23651142 L23.5493027,20.0322289 L23.5493317,20.0322289 Z" id="Shape"></path>
                </g>
            </g>
        </g>
    </g>
</svg>